<svg xmlns="http://www.w3.org/2000/svg" xmlns:xlink="http://www.w3.org/1999/xlink" width="1080" zoomAndPan="magnify" viewBox="0 0 810 809.999993" height="1080" preserveAspectRatio="xMidYMid meet" version="1.0"><defs><clipPath id="57ee9addd9"><path d="M 20 2 L 730 2 L 730 594.496094 L 20 594.496094 Z M 20 2 " clip-rule="nonzero"/></clipPath><clipPath id="f948d7ea6f"><path d="M 3 17 L 695 17 L 695 594.203125 L 3 594.203125 Z M 3 17 " clip-rule="nonzero"/></clipPath><clipPath id="bb628a9979"><path d="M 3 46 L 695 46 L 695 623.121094 L 3 623.121094 Z M 3 46 " clip-rule="nonzero"/></clipPath><clipPath id="b72bf15424"><rect x="0" width="733" y="0" height="625"/></clipPath></defs><g transform="matrix(1, 0, 0, 1, 39, 95)"><g clip-path="url(#b72bf15424)"><g clip-path="url(#57ee9addd9)"><path fill="#e94e4e" d="M 461.046875 594.089844 L 412.109375 594.089844 C 412.109375 498.25 366.660156 447.292969 335.773438 423.734375 C 335.128906 426 334.429688 428.25 333.671875 430.484375 C 332.917969 432.71875 332.109375 434.929688 331.25 437.125 C 330.386719 439.320312 329.472656 441.488281 328.503906 443.640625 C 327.535156 445.789062 326.515625 447.914062 325.441406 450.011719 C 324.371094 452.109375 323.246094 454.183594 322.074219 456.226562 C 320.902344 458.273438 319.679688 460.285156 318.40625 462.273438 C 317.136719 464.257812 315.816406 466.210938 314.449219 468.128906 C 313.082031 470.050781 311.671875 471.9375 310.210938 473.789062 C 308.753906 475.636719 307.25 477.453125 305.703125 479.230469 C 304.152344 481.007812 302.5625 482.75 300.933594 484.449219 C 299.300781 486.148438 297.625 487.808594 295.914062 489.429688 C 294.199219 491.046875 292.449219 492.625 290.65625 494.15625 C 288.867188 495.691406 287.039062 497.179688 285.175781 498.621094 C 283.3125 500.066406 281.417969 501.464844 279.484375 502.816406 C 277.554688 504.167969 275.59375 505.472656 273.597656 506.726562 C 271.601562 507.984375 269.578125 509.1875 267.523438 510.34375 C 265.46875 511.503906 263.390625 512.609375 261.28125 513.664062 C 259.175781 514.71875 257.042969 515.722656 254.886719 516.671875 C 252.726562 517.625 250.550781 518.523438 248.347656 519.367188 C 246.148438 520.210938 243.929688 521.003906 241.691406 521.738281 C 239.449219 522.476562 237.195312 523.15625 234.921875 523.785156 C 232.648438 524.410156 230.363281 524.980469 228.0625 525.496094 C 225.761719 526.011719 223.453125 526.46875 221.128906 526.871094 C 218.804688 527.273438 216.476562 527.617188 214.136719 527.90625 C 211.796875 528.195312 209.449219 528.425781 207.101562 528.597656 C 204.75 528.773438 202.394531 528.886719 200.039062 528.949219 C 197.683594 529.007812 195.328125 529.007812 192.96875 528.953125 C 190.613281 528.894531 188.261719 528.78125 185.910156 528.609375 C 183.558594 528.4375 181.210938 528.210938 178.871094 527.925781 C 176.53125 527.640625 174.203125 527.296875 171.878906 526.898438 C 169.554688 526.496094 167.242188 526.042969 164.941406 525.53125 C 162.640625 525.015625 160.355469 524.449219 158.082031 523.824219 C 155.808594 523.203125 153.550781 522.523438 151.3125 521.789062 C 149.070312 521.054688 146.851562 520.265625 144.648438 519.421875 C 142.449219 518.582031 140.269531 517.683594 138.109375 516.734375 C 135.953125 515.789062 133.820312 514.785156 131.710938 513.734375 C 129.601562 512.679688 127.519531 511.578125 125.464844 510.421875 C 123.410156 509.265625 121.386719 508.0625 119.390625 506.808594 C 117.390625 505.554688 115.429688 504.253906 113.496094 502.90625 C 111.5625 501.554688 109.664062 500.160156 107.800781 498.71875 C 105.933594 497.277344 104.105469 495.789062 102.316406 494.257812 C 100.523438 492.726562 98.769531 491.152344 97.054688 489.535156 C 95.339844 487.917969 93.664062 486.261719 92.03125 484.5625 C 90.394531 482.863281 88.804688 481.125 87.253906 479.347656 C 85.707031 477.574219 84.199219 475.757812 82.738281 473.910156 C 81.277344 472.058594 79.863281 470.175781 78.496094 468.257812 C 77.125 466.335938 75.804688 464.386719 74.53125 462.402344 C 73.257812 460.417969 72.03125 458.40625 70.855469 456.363281 C 69.683594 454.320312 68.558594 452.25 67.484375 450.152344 C 66.410156 448.050781 65.386719 445.929688 64.414062 443.78125 C 63.445312 441.632812 62.527344 439.464844 61.664062 437.269531 C 60.796875 435.078125 59.988281 432.863281 59.230469 430.632812 C 58.472656 428.398438 57.773438 426.148438 57.125 423.882812 C 56.476562 421.617188 55.886719 419.335938 55.351562 417.039062 C 54.816406 414.746094 54.335938 412.4375 53.914062 410.117188 C 53.492188 407.800781 53.125 405.472656 52.816406 403.136719 C 52.507812 400.796875 52.253906 398.457031 52.058594 396.105469 C 51.863281 393.757812 51.726562 391.40625 51.648438 389.046875 C 51.566406 386.691406 51.542969 384.335938 51.578125 381.980469 C 51.613281 379.621094 51.707031 377.269531 51.855469 374.914062 C 52.007812 372.5625 52.214844 370.214844 52.476562 367.875 C 52.742188 365.53125 53.0625 363.195312 53.441406 360.871094 C 53.820312 358.542969 54.253906 356.226562 54.746094 353.921875 C 55.238281 351.617188 55.785156 349.324219 56.390625 347.046875 C 54.222656 344.574219 52.140625 342.027344 50.148438 339.410156 C 48.152344 336.796875 46.25 334.117188 44.4375 331.371094 C 42.628906 328.625 40.910156 325.820312 39.289062 322.960938 C 37.671875 320.097656 36.148438 317.183594 34.726562 314.21875 C 33.304688 311.25 31.984375 308.242188 30.769531 305.183594 C 29.550781 302.128906 28.441406 299.035156 27.433594 295.90625 C 26.429688 292.773438 25.53125 289.609375 24.738281 286.417969 C 23.949219 283.226562 23.265625 280.011719 22.695312 276.769531 C 22.125 273.53125 21.664062 270.277344 21.3125 267.007812 C 20.964844 263.738281 20.726562 260.457031 20.597656 257.171875 C 20.472656 253.882812 20.457031 250.597656 20.554688 247.308594 C 20.652344 244.023438 20.859375 240.742188 21.179688 237.46875 C 21.503906 234.195312 21.933594 230.9375 22.476562 227.691406 C 23.019531 224.449219 23.671875 221.226562 24.433594 218.027344 C 25.195312 214.828125 26.066406 211.65625 27.046875 208.515625 C 28.023438 205.378906 29.105469 202.273438 30.296875 199.207031 C 31.488281 196.140625 32.777344 193.117188 34.175781 190.140625 C 35.570312 187.160156 37.066406 184.234375 38.660156 181.359375 C 40.253906 178.480469 41.945312 175.664062 43.734375 172.902344 C 45.519531 170.140625 47.398438 167.441406 49.371094 164.808594 C 51.339844 162.175781 53.398438 159.613281 55.542969 157.121094 C 57.6875 154.625 59.917969 152.210938 62.226562 149.867188 C 64.535156 147.527344 66.921875 145.265625 69.386719 143.085938 C 71.851562 140.910156 74.386719 138.816406 76.992188 136.808594 C 79.601562 134.804688 82.273438 132.890625 85.007812 131.066406 C 87.746094 129.242188 90.542969 127.511719 93.394531 125.878906 C 96.25 124.246094 99.15625 122.710938 102.117188 121.273438 C 105.078125 119.839844 108.082031 118.507812 111.132812 117.277344 C 114.179688 116.042969 117.269531 114.917969 120.398438 113.898438 C 123.523438 112.878906 126.679688 111.964844 129.871094 111.160156 C 133.058594 110.355469 136.273438 109.660156 139.507812 109.074219 C 142.746094 108.484375 145.996094 108.011719 149.265625 107.644531 C 150.339844 103.886719 151.5625 100.179688 152.933594 96.519531 C 154.304688 92.863281 155.820312 89.265625 157.484375 85.726562 C 159.148438 82.191406 160.949219 78.726562 162.890625 75.335938 C 164.832031 71.945312 166.90625 68.640625 169.117188 65.414062 C 171.324219 62.191406 173.660156 59.0625 176.121094 56.027344 C 178.582031 52.992188 181.160156 50.0625 183.859375 47.234375 C 186.558594 44.40625 189.363281 41.695312 192.28125 39.09375 C 195.199219 36.492188 198.214844 34.015625 201.332031 31.65625 C 204.449219 29.300781 207.65625 27.074219 210.953125 24.976562 C 214.246094 22.878906 217.625 20.914062 221.078125 19.089844 C 224.535156 17.265625 228.054688 15.582031 231.648438 14.039062 C 235.238281 12.496094 238.882812 11.101562 242.585938 9.855469 C 246.289062 8.609375 250.039062 7.511719 253.832031 6.566406 C 257.621094 5.625 261.445312 4.832031 265.300781 4.195312 C 269.15625 3.5625 273.03125 3.082031 276.925781 2.757812 C 280.820312 2.433594 284.71875 2.269531 288.628906 2.257812 C 293.054688 2.242188 297.476562 2.429688 301.886719 2.820312 C 306.296875 3.210938 310.679688 3.804688 315.039062 4.601562 C 319.394531 5.398438 323.703125 6.394531 327.96875 7.589844 C 332.230469 8.785156 336.429688 10.175781 340.566406 11.761719 C 344.699219 13.34375 348.753906 15.117188 352.726562 17.078125 C 356.695312 19.035156 360.570312 21.175781 364.339844 23.492188 C 368.113281 25.8125 371.773438 28.300781 375.316406 30.957031 C 378.859375 33.613281 382.269531 36.425781 385.554688 39.398438 C 387.964844 37.382812 390.4375 35.449219 392.972656 33.597656 C 395.511719 31.742188 398.105469 29.972656 400.753906 28.289062 C 403.40625 26.605469 406.109375 25.007812 408.863281 23.496094 C 411.621094 21.988281 414.421875 20.570312 417.269531 19.242188 C 420.117188 17.917969 423.003906 16.683594 425.929688 15.542969 C 428.859375 14.40625 431.820312 13.363281 434.816406 12.414062 C 437.8125 11.46875 440.832031 10.621094 443.882812 9.871094 C 446.933594 9.121094 450.007812 8.46875 453.097656 7.921875 C 456.191406 7.371094 459.300781 6.921875 462.421875 6.574219 C 465.542969 6.226562 468.675781 5.980469 471.8125 5.835938 C 474.949219 5.691406 478.089844 5.648438 481.230469 5.707031 C 484.371094 5.765625 487.507812 5.929688 490.636719 6.191406 C 493.765625 6.457031 496.886719 6.820312 499.992188 7.289062 C 503.097656 7.753906 506.1875 8.320312 509.257812 8.988281 C 512.328125 9.65625 515.371094 10.421875 518.390625 11.285156 C 521.410156 12.152344 524.398438 13.113281 527.355469 14.175781 C 530.316406 15.234375 533.234375 16.390625 536.117188 17.636719 C 539 18.886719 541.835938 20.230469 544.632812 21.664062 C 547.425781 23.097656 550.171875 24.621094 552.867188 26.234375 C 555.5625 27.847656 558.203125 29.546875 560.789062 31.332031 C 563.375 33.113281 565.898438 34.980469 568.363281 36.929688 C 570.828125 38.878906 573.226562 40.90625 575.558594 43.011719 C 577.890625 45.113281 580.152344 47.292969 582.34375 49.542969 C 584.53125 51.796875 586.648438 54.117188 588.6875 56.507812 C 590.726562 58.894531 592.6875 61.347656 594.566406 63.867188 C 596.445312 66.382812 598.242188 68.957031 599.953125 71.589844 C 601.667969 74.226562 603.292969 76.910156 604.832031 79.652344 C 606.367188 82.390625 607.816406 85.175781 609.171875 88.007812 C 610.527344 90.84375 611.792969 93.71875 612.960938 96.632812 C 614.128906 99.546875 615.203125 102.5 616.183594 105.484375 C 617.160156 108.46875 618.039062 111.484375 618.820312 114.527344 C 619.601562 117.570312 620.285156 120.632812 620.867188 123.71875 C 622.976562 124.265625 625.074219 124.859375 627.15625 125.5 C 629.238281 126.144531 631.308594 126.832031 633.359375 127.566406 C 635.410156 128.300781 637.445312 129.078125 639.464844 129.90625 C 641.480469 130.730469 643.476562 131.601562 645.457031 132.519531 C 647.433594 133.4375 649.386719 134.394531 651.324219 135.402344 C 653.257812 136.40625 655.167969 137.453125 657.054688 138.542969 C 658.941406 139.636719 660.804688 140.769531 662.636719 141.941406 C 664.472656 143.117188 666.28125 144.332031 668.0625 145.589844 C 669.84375 146.847656 671.597656 148.144531 673.320312 149.476562 C 675.039062 150.8125 676.730469 152.1875 678.394531 153.597656 C 680.054688 155.011719 681.679688 156.460938 683.277344 157.945312 C 684.871094 159.429688 686.429688 160.953125 687.957031 162.507812 C 689.484375 164.0625 690.976562 165.652344 692.429688 167.277344 C 693.882812 168.898438 695.300781 170.554688 696.679688 172.242188 C 698.0625 173.929688 699.402344 175.644531 700.703125 177.394531 C 702.007812 179.140625 703.269531 180.917969 704.492188 182.722656 C 705.714844 184.527344 706.894531 186.359375 708.035156 188.214844 C 709.171875 190.074219 710.269531 191.957031 711.324219 193.863281 C 712.378906 195.769531 713.390625 197.703125 714.359375 199.65625 C 715.324219 201.609375 716.25 203.582031 717.125 205.578125 C 718.003906 207.570312 718.835938 209.585938 719.625 211.617188 C 720.414062 213.648438 721.152344 215.699219 721.847656 217.765625 C 722.542969 219.832031 723.191406 221.910156 723.792969 224.007812 C 724.394531 226.101562 724.945312 228.207031 725.453125 230.328125 C 725.957031 232.449219 726.417969 234.578125 726.828125 236.71875 C 727.234375 238.859375 727.597656 241.007812 727.910156 243.167969 C 728.222656 245.324219 728.488281 247.484375 728.703125 249.65625 C 728.917969 251.824219 729.082031 253.996094 729.199219 256.171875 C 729.316406 258.351562 729.382812 260.527344 729.402344 262.707031 C 729.421875 264.886719 729.390625 267.066406 729.3125 269.242188 C 729.230469 271.421875 729.105469 273.597656 728.925781 275.769531 C 728.746094 277.941406 728.519531 280.109375 728.246094 282.269531 C 727.96875 284.433594 727.644531 286.585938 727.273438 288.734375 C 726.898438 290.882812 726.476562 293.019531 726.007812 295.148438 C 725.539062 297.277344 725.023438 299.394531 724.457031 301.5 C 723.890625 303.605469 723.28125 305.695312 722.621094 307.773438 C 721.960938 309.851562 721.253906 311.910156 720.503906 313.957031 C 719.75 316.003906 718.953125 318.03125 718.109375 320.039062 C 717.265625 322.050781 716.375 324.039062 715.441406 326.007812 C 714.507812 327.976562 713.53125 329.925781 712.507812 331.851562 C 711.488281 333.773438 710.421875 335.675781 709.316406 337.554688 C 708.207031 339.429688 707.058594 341.28125 705.867188 343.109375 C 704.675781 344.933594 703.445312 346.730469 702.171875 348.5 C 700.898438 350.269531 699.589844 352.011719 698.238281 353.71875 C 696.886719 355.429688 695.5 357.109375 694.070312 358.757812 C 692.644531 360.40625 691.183594 362.019531 689.683594 363.601562 C 688.183594 365.183594 686.648438 366.730469 685.078125 368.246094 C 683.511719 369.757812 681.90625 371.234375 680.273438 372.671875 C 678.636719 374.113281 676.96875 375.515625 675.269531 376.882812 C 673.570312 378.246094 671.839844 379.570312 670.082031 380.859375 C 668.324219 382.144531 666.535156 383.390625 664.71875 384.597656 C 662.90625 385.804688 661.0625 386.96875 659.195312 388.09375 C 657.328125 389.214844 655.433594 390.296875 653.519531 391.332031 C 651.601562 392.371094 649.664062 393.367188 647.699219 394.316406 C 645.738281 395.265625 643.757812 396.171875 641.753906 397.03125 C 639.753906 397.890625 637.730469 398.707031 635.691406 399.476562 C 633.652344 400.246094 631.597656 400.96875 629.527344 401.644531 C 627.453125 402.324219 625.367188 402.953125 623.265625 403.535156 C 621.167969 404.117188 619.054688 404.652344 616.929688 405.140625 C 614.804688 405.625 612.671875 406.066406 610.527344 406.457031 C 608.382812 406.847656 606.230469 407.1875 604.070312 407.484375 C 601.910156 407.777344 599.746094 408.019531 597.574219 408.21875 C 595.40625 408.414062 593.230469 408.558594 591.054688 408.65625 C 588.875 408.753906 586.699219 408.804688 584.519531 408.804688 L 471.09375 408.804688 L 471.09375 359.863281 L 584.519531 359.863281 C 586.027344 359.863281 587.539062 359.828125 589.046875 359.757812 C 590.558594 359.6875 592.0625 359.578125 593.566406 359.4375 C 595.070312 359.296875 596.570312 359.117188 598.066406 358.90625 C 599.5625 358.691406 601.050781 358.445312 602.535156 358.160156 C 604.019531 357.878906 605.496094 357.558594 606.964844 357.207031 C 608.433594 356.851562 609.890625 356.464844 611.34375 356.042969 C 612.792969 355.621094 614.230469 355.164062 615.660156 354.675781 C 617.089844 354.183594 618.507812 353.660156 619.910156 353.105469 C 621.316406 352.546875 622.703125 351.957031 624.082031 351.332031 C 625.457031 350.710938 626.816406 350.054688 628.164062 349.371094 C 629.507812 348.683594 630.835938 347.964844 632.148438 347.214844 C 633.460938 346.464844 634.753906 345.683594 636.027344 344.875 C 637.300781 344.0625 638.554688 343.222656 639.792969 342.351562 C 641.027344 341.480469 642.238281 340.582031 643.433594 339.65625 C 644.625 338.726562 645.792969 337.773438 646.941406 336.789062 C 648.089844 335.808594 649.210938 334.796875 650.3125 333.761719 C 651.410156 332.726562 652.484375 331.664062 653.535156 330.578125 C 654.582031 329.492188 655.605469 328.378906 656.601562 327.246094 C 657.601562 326.109375 658.570312 324.953125 659.511719 323.773438 C 660.453125 322.589844 661.367188 321.390625 662.253906 320.164062 C 663.136719 318.941406 663.992188 317.695312 664.820312 316.433594 C 665.648438 315.167969 666.445312 313.882812 667.210938 312.582031 C 667.976562 311.28125 668.710938 309.960938 669.414062 308.625 C 670.117188 307.289062 670.789062 305.933594 671.429688 304.566406 C 672.066406 303.199219 672.675781 301.816406 673.25 300.417969 C 673.824219 299.019531 674.363281 297.613281 674.871094 296.1875 C 675.378906 294.765625 675.855469 293.332031 676.292969 291.886719 C 676.734375 290.441406 677.140625 288.988281 677.511719 287.523438 C 677.882812 286.058594 678.21875 284.585938 678.519531 283.105469 C 678.820312 281.625 679.085938 280.140625 679.320312 278.648438 C 679.550781 277.152344 679.746094 275.65625 679.90625 274.15625 C 680.066406 272.652344 680.191406 271.148438 680.28125 269.640625 C 680.371094 268.132812 680.425781 266.621094 680.445312 265.113281 C 680.460938 263.601562 680.445312 262.09375 680.390625 260.582031 C 680.339844 259.074219 680.25 257.566406 680.125 256.058594 C 680 254.554688 679.839844 253.050781 679.644531 251.554688 C 679.449219 250.058594 679.21875 248.5625 678.953125 247.078125 C 678.6875 245.589844 678.386719 244.109375 678.050781 242.636719 C 677.714844 241.164062 677.34375 239.699219 676.941406 238.246094 C 676.535156 236.789062 676.097656 235.34375 675.625 233.910156 C 675.148438 232.476562 674.644531 231.054688 674.101562 229.644531 C 673.5625 228.234375 672.988281 226.835938 672.382812 225.453125 C 671.777344 224.070312 671.136719 222.699219 670.464844 221.347656 C 669.792969 219.992188 669.09375 218.65625 668.359375 217.335938 C 667.625 216.015625 666.859375 214.714844 666.0625 213.429688 C 665.265625 212.144531 664.441406 210.882812 663.585938 209.636719 C 662.730469 208.390625 661.847656 207.167969 660.933594 205.964844 C 660.019531 204.761719 659.078125 203.582031 658.109375 202.421875 C 657.140625 201.261719 656.144531 200.128906 655.121094 199.015625 C 654.097656 197.90625 653.050781 196.816406 651.976562 195.757812 C 650.902344 194.695312 649.800781 193.65625 648.679688 192.648438 C 647.554688 191.636719 646.410156 190.65625 645.242188 189.699219 C 644.070312 188.742188 642.878906 187.816406 641.664062 186.914062 C 640.453125 186.015625 639.21875 185.144531 637.964844 184.304688 C 636.710938 183.460938 635.433594 182.652344 634.140625 181.871094 C 632.851562 181.089844 631.539062 180.339844 630.210938 179.617188 C 628.882812 178.898438 627.539062 178.210938 626.175781 177.554688 C 624.816406 176.902344 623.441406 176.277344 622.050781 175.6875 C 620.660156 175.097656 619.257812 174.539062 617.839844 174.015625 C 616.421875 173.488281 614.996094 173 613.554688 172.542969 C 612.117188 172.085938 610.664062 171.660156 609.207031 171.273438 C 607.746094 170.886719 606.277344 170.53125 604.800781 170.210938 C 603.324219 169.894531 601.84375 169.609375 600.351562 169.359375 C 598.863281 169.113281 597.367188 168.898438 595.867188 168.71875 L 575.316406 166.300781 L 574.285156 145.644531 C 574.164062 143.234375 573.953125 140.835938 573.648438 138.445312 C 573.34375 136.054688 572.953125 133.679688 572.472656 131.320312 C 571.988281 128.957031 571.417969 126.617188 570.757812 124.300781 C 570.101562 121.980469 569.355469 119.691406 568.523438 117.429688 C 567.695312 115.167969 566.777344 112.941406 565.78125 110.746094 C 564.78125 108.554688 563.699219 106.402344 562.539062 104.289062 C 561.378906 102.179688 560.136719 100.113281 558.820312 98.09375 C 557.503906 96.078125 556.113281 94.113281 554.648438 92.199219 C 553.183594 90.285156 551.648438 88.429688 550.042969 86.632812 C 548.4375 84.835938 546.765625 83.101562 545.03125 81.429688 C 543.296875 79.757812 541.5 78.152344 539.644531 76.617188 C 537.785156 75.082031 535.875 73.617188 533.90625 72.222656 C 531.941406 70.832031 529.921875 69.515625 527.855469 68.277344 C 525.789062 67.035156 523.679688 65.875 521.527344 64.792969 C 519.375 63.714844 517.183594 62.714844 514.953125 61.800781 C 512.722656 60.882812 510.464844 60.054688 508.171875 59.308594 C 505.878906 58.5625 503.5625 57.902344 501.222656 57.332031 C 498.878906 56.761719 496.519531 56.28125 494.144531 55.886719 C 491.765625 55.496094 489.378906 55.191406 486.976562 54.980469 C 484.574219 54.765625 482.171875 54.644531 479.761719 54.613281 C 477.351562 54.582031 474.945312 54.640625 472.539062 54.789062 C 470.132812 54.941406 467.738281 55.179688 465.351562 55.511719 C 462.964844 55.839844 460.59375 56.261719 458.238281 56.769531 C 455.882812 57.28125 453.546875 57.875 451.238281 58.5625 C 448.929688 59.246094 446.648438 60.019531 444.394531 60.875 C 442.140625 61.734375 439.925781 62.671875 437.742188 63.699219 C 435.5625 64.722656 433.421875 65.828125 431.324219 67.011719 C 429.226562 68.199219 427.175781 69.460938 425.171875 70.800781 C 423.171875 72.140625 421.222656 73.554688 419.324219 75.042969 C 417.429688 76.527344 415.589844 78.085938 413.8125 79.710938 C 412.03125 81.335938 410.316406 83.027344 408.664062 84.78125 C 407.015625 86.535156 405.429688 88.351562 403.917969 90.226562 L 384.195312 114.585938 L 365.351562 89.53125 C 363.929688 87.640625 362.445312 85.804688 360.886719 84.019531 C 359.332031 82.238281 357.714844 80.515625 356.03125 78.855469 C 354.347656 77.191406 352.609375 75.59375 350.808594 74.058594 C 349.007812 72.527344 347.152344 71.0625 345.242188 69.664062 C 343.332031 68.269531 341.375 66.945312 339.367188 65.695312 C 337.359375 64.441406 335.308594 63.265625 333.214844 62.167969 C 331.121094 61.066406 328.988281 60.046875 326.820312 59.105469 C 324.652344 58.164062 322.449219 57.304688 320.214844 56.523438 C 317.984375 55.746094 315.722656 55.050781 313.4375 54.4375 C 311.15625 53.824219 308.851562 53.300781 306.527344 52.859375 C 304.203125 52.417969 301.867188 52.0625 299.515625 51.792969 C 297.164062 51.523438 294.808594 51.34375 292.445312 51.25 C 290.082031 51.15625 287.71875 51.148438 285.355469 51.230469 C 282.992188 51.308594 280.632812 51.476562 278.28125 51.734375 C 275.929688 51.988281 273.589844 52.328125 271.265625 52.757812 C 268.9375 53.1875 266.632812 53.699219 264.34375 54.296875 C 262.054688 54.898438 259.792969 55.582031 257.554688 56.347656 C 255.316406 57.113281 253.109375 57.960938 250.9375 58.890625 C 248.761719 59.820312 246.625 60.828125 244.523438 61.917969 C 242.421875 63.003906 240.367188 64.167969 238.351562 65.410156 C 236.335938 66.648438 234.371094 67.960938 232.457031 69.347656 C 230.539062 70.734375 228.675781 72.1875 226.867188 73.710938 C 225.054688 75.234375 223.304688 76.820312 221.613281 78.472656 C 219.921875 80.128906 218.292969 81.839844 216.726562 83.613281 C 215.164062 85.386719 213.664062 87.214844 212.234375 89.101562 C 210.804688 90.984375 209.449219 92.917969 208.160156 94.902344 C 206.875 96.886719 205.664062 98.917969 204.527344 100.992188 C 203.390625 103.066406 202.332031 105.179688 201.351562 107.332031 C 200.371094 109.484375 199.472656 111.671875 198.652344 113.890625 C 197.835938 116.109375 197.097656 118.355469 196.445312 120.628906 C 195.792969 122.902344 195.226562 125.195312 194.746094 127.511719 C 194.261719 129.828125 193.867188 132.15625 193.554688 134.503906 L 190.675781 156.5 L 167.652344 155.75 C 166.882812 155.722656 166.109375 155.691406 165.332031 155.691406 C 162.929688 155.691406 160.535156 155.78125 158.140625 155.960938 C 155.746094 156.140625 153.359375 156.410156 150.988281 156.769531 C 148.613281 157.128906 146.253906 157.578125 143.914062 158.113281 C 141.574219 158.648438 139.257812 159.273438 136.964844 159.984375 C 134.671875 160.691406 132.40625 161.488281 130.171875 162.367188 C 127.941406 163.25 125.742188 164.210938 123.582031 165.257812 C 121.417969 166.300781 119.300781 167.425781 117.222656 168.632812 C 115.144531 169.835938 113.117188 171.117188 111.136719 172.472656 C 109.15625 173.828125 107.226562 175.257812 105.355469 176.761719 C 103.480469 178.261719 101.664062 179.832031 99.910156 181.46875 C 98.15625 183.105469 96.460938 184.808594 94.835938 186.574219 C 93.207031 188.339844 91.648438 190.160156 90.15625 192.042969 C 88.664062 193.925781 87.246094 195.859375 85.902344 197.847656 C 84.554688 199.835938 83.285156 201.875 82.09375 203.957031 C 80.902344 206.042969 79.789062 208.167969 78.753906 210.335938 C 77.722656 212.5 76.773438 214.703125 75.902344 216.941406 C 75.035156 219.183594 74.253906 221.449219 73.558594 223.746094 C 72.859375 226.046875 72.25 228.367188 71.726562 230.707031 C 71.203125 233.050781 70.769531 235.410156 70.421875 237.789062 C 70.078125 240.164062 69.820312 242.550781 69.652344 244.945312 C 69.488281 247.339844 69.410156 249.738281 69.421875 252.136719 C 69.4375 254.539062 69.539062 256.9375 69.734375 259.328125 C 69.925781 261.722656 70.210938 264.105469 70.582031 266.476562 C 70.953125 268.847656 71.414062 271.203125 71.964844 273.542969 C 72.511719 275.878906 73.148438 278.191406 73.871094 280.480469 C 74.59375 282.769531 75.402344 285.03125 76.296875 287.257812 C 77.1875 289.488281 78.164062 291.679688 79.21875 293.835938 C 80.277344 295.992188 81.414062 298.105469 82.628906 300.175781 C 83.847656 302.246094 85.136719 304.269531 86.503906 306.242188 C 87.871094 308.214844 89.3125 310.132812 90.824219 312 C 92.335938 313.863281 93.917969 315.671875 95.5625 317.417969 C 97.210938 319.164062 98.921875 320.84375 100.695312 322.464844 L 113.0625 333.757812 L 107.011719 349.371094 C 106.375 351.007812 105.789062 352.660156 105.246094 354.328125 C 104.703125 355.996094 104.207031 357.679688 103.757812 359.375 C 103.304688 361.070312 102.902344 362.777344 102.546875 364.496094 C 102.1875 366.214844 101.878906 367.941406 101.617188 369.675781 C 101.355469 371.410156 101.140625 373.148438 100.972656 374.894531 C 100.808594 376.644531 100.6875 378.390625 100.617188 380.144531 C 100.546875 381.898438 100.523438 383.652344 100.550781 385.40625 C 100.578125 387.160156 100.648438 388.914062 100.773438 390.664062 C 100.894531 392.414062 101.0625 394.160156 101.28125 395.902344 C 101.5 397.640625 101.765625 399.375 102.078125 401.101562 C 102.390625 402.828125 102.75 404.542969 103.15625 406.25 C 103.5625 407.957031 104.015625 409.652344 104.515625 411.332031 C 105.015625 413.015625 105.5625 414.683594 106.152344 416.335938 C 106.746094 417.984375 107.382812 419.621094 108.0625 421.238281 C 108.742188 422.855469 109.46875 424.453125 110.238281 426.027344 C 111.003906 427.605469 111.816406 429.160156 112.671875 430.691406 C 113.523438 432.226562 114.421875 433.734375 115.355469 435.21875 C 116.292969 436.699219 117.269531 438.15625 118.289062 439.585938 C 119.304688 441.015625 120.359375 442.417969 121.453125 443.789062 C 122.546875 445.164062 123.675781 446.503906 124.84375 447.8125 C 126.011719 449.121094 127.214844 450.398438 128.449219 451.644531 C 129.6875 452.886719 130.957031 454.097656 132.261719 455.269531 C 133.566406 456.445312 134.898438 457.582031 136.265625 458.683594 C 137.632812 459.785156 139.027344 460.847656 140.453125 461.871094 C 141.875 462.898438 143.328125 463.882812 144.804688 464.828125 C 146.285156 465.769531 147.785156 466.675781 149.316406 467.539062 C 150.84375 468.398438 152.394531 469.21875 153.964844 469.996094 C 155.539062 470.773438 157.132812 471.507812 158.746094 472.199219 C 160.359375 472.886719 161.988281 473.53125 163.636719 474.132812 C 165.285156 474.734375 166.949219 475.289062 168.628906 475.796875 C 170.308594 476.304688 172 476.769531 173.703125 477.183594 C 175.410156 477.601562 177.125 477.96875 178.847656 478.292969 C 180.574219 478.613281 182.304688 478.890625 184.046875 479.117188 C 185.785156 479.34375 187.53125 479.523438 189.277344 479.652344 C 191.027344 479.785156 192.78125 479.867188 194.535156 479.902344 C 196.289062 479.9375 198.042969 479.925781 199.796875 479.863281 C 201.550781 479.804688 203.300781 479.695312 205.046875 479.539062 C 206.792969 479.382812 208.535156 479.175781 210.273438 478.921875 C 212.007812 478.671875 213.738281 478.371094 215.457031 478.023438 C 217.175781 477.675781 218.886719 477.28125 220.582031 476.839844 C 222.28125 476.398438 223.964844 475.910156 225.636719 475.378906 C 227.308594 474.84375 228.964844 474.265625 230.605469 473.640625 C 232.242188 473.015625 233.863281 472.347656 235.46875 471.632812 C 237.070312 470.917969 238.652344 470.164062 240.214844 469.363281 C 241.777344 468.5625 243.3125 467.71875 244.828125 466.835938 C 246.34375 465.949219 247.832031 465.023438 249.296875 464.058594 C 250.761719 463.089844 252.199219 462.085938 253.609375 461.039062 C 255.015625 459.996094 256.398438 458.914062 257.746094 457.792969 C 259.097656 456.671875 260.414062 455.511719 261.699219 454.320312 C 262.984375 453.125 264.238281 451.898438 265.457031 450.636719 C 266.675781 449.375 267.859375 448.078125 269.007812 446.753906 C 270.15625 445.425781 271.265625 444.070312 272.339844 442.679688 C 273.414062 441.292969 274.445312 439.875 275.441406 438.433594 C 276.4375 436.988281 277.394531 435.515625 278.308594 434.019531 C 279.222656 432.523438 280.097656 431 280.925781 429.457031 C 281.757812 427.910156 282.546875 426.34375 283.292969 424.757812 C 284.039062 423.167969 284.738281 421.558594 285.394531 419.933594 C 286.054688 418.308594 286.664062 416.664062 287.234375 415.003906 C 287.800781 413.34375 288.320312 411.667969 288.796875 409.980469 C 289.269531 408.289062 289.699219 406.589844 290.082031 404.875 C 290.464844 403.164062 290.796875 401.441406 291.085938 399.710938 C 291.371094 397.980469 291.613281 396.242188 291.804688 394.5 C 291.996094 392.753906 292.140625 391.007812 292.234375 389.257812 C 292.332031 387.503906 292.378906 385.75 292.378906 383.996094 L 292.378906 348.011719 L 325.84375 361.25 C 331.367188 363.433594 461.046875 416.761719 461.046875 594.089844 Z M 461.046875 594.089844 " fill-opacity="1" fill-rule="nonzero"/></g><g clip-path="url(#f948d7ea6f)"><path fill="#74c551" d="M 432.800781 594.09375 L 385.164062 594.09375 C 385.164062 500.796875 340.921875 451.191406 310.851562 428.261719 C 310.226562 430.46875 309.546875 432.65625 308.8125 434.832031 C 308.078125 437.003906 307.289062 439.160156 306.449219 441.296875 C 305.609375 443.429688 304.71875 445.546875 303.777344 447.636719 C 302.835938 449.730469 301.839844 451.796875 300.796875 453.839844 C 299.753906 455.882812 298.660156 457.902344 297.519531 459.890625 C 296.378906 461.882812 295.1875 463.84375 293.949219 465.773438 C 292.710938 467.707031 291.425781 469.609375 290.097656 471.476562 C 288.765625 473.347656 287.390625 475.183594 285.972656 476.984375 C 284.550781 478.785156 283.085938 480.554688 281.582031 482.285156 C 280.074219 484.015625 278.527344 485.707031 276.9375 487.363281 C 275.347656 489.019531 273.71875 490.632812 272.054688 492.210938 C 270.386719 493.785156 268.679688 495.320312 266.9375 496.8125 C 265.195312 498.304688 263.414062 499.753906 261.601562 501.160156 C 259.789062 502.566406 257.941406 503.925781 256.0625 505.242188 C 254.183594 506.558594 252.269531 507.828125 250.328125 509.050781 C 248.386719 510.273438 246.417969 511.445312 244.417969 512.574219 C 242.417969 513.699219 240.390625 514.777344 238.339844 515.804688 C 236.289062 516.828125 234.214844 517.804688 232.113281 518.734375 C 230.015625 519.660156 227.894531 520.53125 225.75 521.355469 C 223.609375 522.175781 221.449219 522.949219 219.269531 523.664062 C 217.089844 524.382812 214.894531 525.042969 212.679688 525.652344 C 210.46875 526.265625 208.242188 526.820312 206.003906 527.320312 C 203.765625 527.820312 201.515625 528.269531 199.253906 528.660156 C 196.992188 529.050781 194.722656 529.386719 192.445312 529.667969 C 190.167969 529.949219 187.886719 530.171875 185.597656 530.339844 C 183.308594 530.511719 181.019531 530.625 178.722656 530.679688 C 176.429688 530.738281 174.136719 530.738281 171.84375 530.683594 C 169.546875 530.628906 167.257812 530.519531 164.96875 530.351562 C 162.679688 530.1875 160.398438 529.964844 158.121094 529.683594 C 155.839844 529.40625 153.570312 529.074219 151.3125 528.683594 C 149.050781 528.296875 146.796875 527.851562 144.558594 527.355469 C 142.320312 526.855469 140.09375 526.300781 137.878906 525.695312 C 135.667969 525.085938 133.472656 524.425781 131.289062 523.710938 C 129.109375 522.996094 126.949219 522.230469 124.804688 521.410156 C 122.664062 520.589844 120.539062 519.71875 118.441406 518.792969 C 116.339844 517.871094 114.261719 516.894531 112.210938 515.871094 C 110.15625 514.84375 108.128906 513.769531 106.128906 512.648438 C 104.128906 511.523438 102.15625 510.351562 100.214844 509.128906 C 98.269531 507.910156 96.359375 506.644531 94.476562 505.328125 C 92.597656 504.015625 90.746094 502.65625 88.933594 501.253906 C 87.117188 499.851562 85.339844 498.402344 83.59375 496.910156 C 81.847656 495.421875 80.140625 493.890625 78.472656 492.316406 C 76.804688 490.742188 75.171875 489.125 73.582031 487.472656 C 71.992188 485.820312 70.441406 484.128906 68.933594 482.398438 C 67.425781 480.667969 65.960938 478.90625 64.539062 477.105469 C 63.117188 475.304688 61.738281 473.46875 60.40625 471.601562 C 59.074219 469.734375 57.789062 467.832031 56.546875 465.902344 C 55.308594 463.972656 54.117188 462.011719 52.972656 460.023438 C 51.828125 458.035156 50.730469 456.019531 49.6875 453.976562 C 48.640625 451.933594 47.644531 449.867188 46.699219 447.777344 C 45.753906 445.683594 44.863281 443.570312 44.019531 441.4375 C 43.179688 439.300781 42.390625 437.148438 41.652344 434.976562 C 40.917969 432.800781 40.234375 430.613281 39.605469 428.40625 C 38.972656 426.199219 38.398438 423.980469 37.878906 421.746094 C 37.355469 419.507812 36.890625 417.261719 36.476562 415.007812 C 36.066406 412.75 35.710938 410.484375 35.410156 408.207031 C 35.109375 405.933594 34.863281 403.652344 34.671875 401.367188 C 34.484375 399.078125 34.347656 396.789062 34.269531 394.496094 C 34.191406 392.203125 34.171875 389.910156 34.207031 387.613281 C 34.238281 385.320312 34.328125 383.027344 34.476562 380.738281 C 34.621094 378.449219 34.824219 376.164062 35.082031 373.882812 C 35.335938 371.601562 35.652344 369.332031 36.019531 367.066406 C 36.386719 364.800781 36.8125 362.546875 37.289062 360.300781 C 37.769531 358.058594 38.300781 355.828125 38.886719 353.609375 C 36.777344 351.199219 34.753906 348.722656 32.8125 346.175781 C 30.871094 343.628906 29.019531 341.019531 27.253906 338.347656 C 25.492188 335.675781 23.820312 332.945312 22.242188 330.160156 C 20.664062 327.375 19.183594 324.539062 17.800781 321.652344 C 16.417969 318.765625 15.132812 315.832031 13.949219 312.859375 C 12.761719 309.882812 11.679688 306.871094 10.703125 303.824219 C 9.722656 300.777344 8.847656 297.699219 8.078125 294.589844 C 7.308594 291.480469 6.644531 288.351562 6.089844 285.199219 C 5.53125 282.046875 5.082031 278.878906 4.742188 275.695312 C 4.402344 272.511719 4.171875 269.320312 4.046875 266.121094 C 3.921875 262.921875 3.910156 259.71875 4.003906 256.519531 C 4.097656 253.320312 4.300781 250.125 4.613281 246.941406 C 4.925781 243.753906 5.347656 240.582031 5.875 237.421875 C 6.402344 234.265625 7.039062 231.128906 7.78125 228.015625 C 8.523438 224.898438 9.371094 221.8125 10.324219 218.757812 C 11.273438 215.699219 12.328125 212.679688 13.488281 209.695312 C 14.644531 206.710938 15.90625 203.765625 17.261719 200.867188 C 18.621094 197.96875 20.078125 195.117188 21.628906 192.320312 C 23.183594 189.519531 24.828125 186.773438 26.566406 184.085938 C 28.308594 181.398438 30.136719 178.773438 32.054688 176.210938 C 33.972656 173.644531 35.976562 171.152344 38.066406 168.722656 C 40.152344 166.296875 42.320312 163.945312 44.570312 161.664062 C 46.820312 159.386719 49.140625 157.183594 51.542969 155.0625 C 53.941406 152.945312 56.40625 150.90625 58.945312 148.953125 C 61.480469 147 64.082031 145.136719 66.746094 143.363281 C 69.410156 141.585938 72.132812 139.902344 74.914062 138.3125 C 77.691406 136.722656 80.519531 135.226562 83.402344 133.832031 C 86.28125 132.433594 89.207031 131.136719 92.175781 129.9375 C 95.144531 128.738281 98.152344 127.644531 101.195312 126.652344 C 104.238281 125.65625 107.3125 124.769531 110.417969 123.984375 C 113.523438 123.199219 116.648438 122.523438 119.800781 121.953125 C 122.949219 121.382812 126.117188 120.917969 129.296875 120.5625 C 130.34375 116.90625 131.53125 113.296875 132.867188 109.734375 C 134.203125 106.171875 135.679688 102.671875 137.300781 99.226562 C 138.917969 95.785156 140.671875 92.414062 142.5625 89.113281 C 144.453125 85.8125 146.472656 82.59375 148.621094 79.453125 C 150.773438 76.316406 153.046875 73.269531 155.441406 70.316406 C 157.835938 67.359375 160.347656 64.507812 162.972656 61.757812 C 165.601562 59.003906 168.332031 56.363281 171.171875 53.832031 C 174.011719 51.300781 176.949219 48.886719 179.980469 46.59375 C 183.015625 44.296875 186.136719 42.128906 189.347656 40.085938 C 192.554688 38.046875 195.839844 36.136719 199.203125 34.359375 C 202.566406 32.582031 205.996094 30.941406 209.492188 29.441406 C 212.988281 27.941406 216.539062 26.582031 220.144531 25.371094 C 223.746094 24.15625 227.394531 23.089844 231.085938 22.167969 C 234.777344 21.25 238.5 20.480469 242.253906 19.859375 C 246.007812 19.242188 249.777344 18.773438 253.570312 18.460938 C 257.359375 18.144531 261.15625 17.984375 264.960938 17.976562 C 269.273438 17.957031 273.574219 18.140625 277.867188 18.519531 C 282.160156 18.902344 286.429688 19.480469 290.667969 20.253906 C 294.910156 21.03125 299.105469 22 303.257812 23.164062 C 307.40625 24.328125 311.496094 25.683594 315.519531 27.222656 C 319.546875 28.765625 323.492188 30.492188 327.355469 32.398438 C 331.222656 34.308594 334.992188 36.390625 338.664062 38.644531 C 342.335938 40.902344 345.898438 43.324219 349.347656 45.910156 C 352.796875 48.496094 356.117188 51.234375 359.3125 54.128906 C 361.660156 52.167969 364.066406 50.285156 366.535156 48.480469 C 369.003906 46.675781 371.53125 44.953125 374.109375 43.3125 C 376.691406 41.671875 379.324219 40.117188 382.003906 38.648438 C 384.6875 37.179688 387.414062 35.800781 390.1875 34.507812 C 392.957031 33.214844 395.769531 32.015625 398.617188 30.90625 C 401.46875 29.796875 404.351562 28.78125 407.265625 27.859375 C 410.183594 26.941406 413.125 26.113281 416.09375 25.382812 C 419.066406 24.652344 422.054688 24.019531 425.066406 23.484375 C 428.078125 22.949219 431.101562 22.511719 434.140625 22.175781 C 437.179688 21.835938 440.226562 21.59375 443.28125 21.453125 C 446.335938 21.3125 449.394531 21.273438 452.449219 21.332031 C 455.507812 21.390625 458.558594 21.546875 461.609375 21.804688 C 464.65625 22.058594 467.691406 22.414062 470.714844 22.871094 C 473.738281 23.324219 476.746094 23.875 479.734375 24.523438 C 482.722656 25.175781 485.683594 25.921875 488.625 26.761719 C 491.566406 27.605469 494.472656 28.542969 497.351562 29.574219 C 500.230469 30.605469 503.074219 31.730469 505.878906 32.945312 C 508.683594 34.160156 511.449219 35.46875 514.167969 36.863281 C 516.890625 38.261719 519.5625 39.742188 522.1875 41.3125 C 524.8125 42.882812 527.382812 44.535156 529.898438 46.273438 C 532.414062 48.011719 534.871094 49.828125 537.269531 51.726562 C 539.667969 53.621094 542.003906 55.59375 544.273438 57.644531 C 546.542969 59.691406 548.746094 61.8125 550.878906 64.003906 C 553.011719 66.195312 555.070312 68.457031 557.054688 70.78125 C 559.039062 73.109375 560.949219 75.496094 562.777344 77.945312 C 564.605469 80.394531 566.355469 82.902344 568.023438 85.464844 C 569.691406 88.03125 571.273438 90.644531 572.769531 93.3125 C 574.265625 95.976562 575.675781 98.691406 576.996094 101.449219 C 578.316406 104.207031 579.546875 107.003906 580.683594 109.84375 C 581.824219 112.679688 582.867188 115.554688 583.820312 118.460938 C 584.769531 121.367188 585.628906 124.300781 586.386719 127.261719 C 587.148438 130.222656 587.8125 133.207031 588.378906 136.210938 C 590.433594 136.742188 592.476562 137.320312 594.503906 137.945312 C 596.53125 138.570312 598.542969 139.238281 600.542969 139.953125 C 602.539062 140.667969 604.519531 141.429688 606.484375 142.230469 C 608.445312 143.035156 610.390625 143.886719 612.316406 144.777344 C 614.242188 145.667969 616.144531 146.605469 618.027344 147.582031 C 619.910156 148.558594 621.769531 149.578125 623.605469 150.640625 C 625.445312 151.703125 627.253906 152.804688 629.042969 153.949219 C 630.828125 155.09375 632.589844 156.277344 634.324219 157.5 C 636.058594 158.722656 637.761719 159.984375 639.4375 161.285156 C 641.117188 162.585938 642.761719 163.921875 644.378906 165.296875 C 645.996094 166.671875 647.578125 168.082031 649.132812 169.527344 C 650.683594 170.972656 652.203125 172.453125 653.691406 173.96875 C 655.175781 175.484375 656.625 177.03125 658.042969 178.609375 C 659.457031 180.191406 660.839844 181.800781 662.179688 183.445312 C 663.523438 185.085938 664.832031 186.757812 666.097656 188.460938 C 667.367188 190.160156 668.59375 191.890625 669.785156 193.648438 C 670.972656 195.402344 672.125 197.1875 673.234375 198.996094 C 674.34375 200.804688 675.410156 202.636719 676.4375 204.492188 C 677.464844 206.351562 678.445312 208.230469 679.390625 210.128906 C 680.332031 212.03125 681.230469 213.953125 682.085938 215.894531 C 682.9375 217.835938 683.75 219.796875 684.515625 221.773438 C 685.28125 223.753906 686.003906 225.746094 686.679688 227.757812 C 687.355469 229.769531 687.988281 231.796875 688.574219 233.835938 C 689.160156 235.875 689.695312 237.925781 690.191406 239.988281 C 690.683594 242.054688 691.128906 244.128906 691.527344 246.210938 C 691.925781 248.292969 692.277344 250.386719 692.582031 252.484375 C 692.886719 254.585938 693.144531 256.691406 693.351562 258.804688 C 693.5625 260.914062 693.722656 263.027344 693.835938 265.148438 C 693.949219 267.265625 694.015625 269.386719 694.035156 271.507812 C 694.054688 273.628906 694.023438 275.75 693.945312 277.871094 C 693.867188 279.992188 693.742188 282.109375 693.570312 284.222656 C 693.398438 286.339844 693.175781 288.449219 692.90625 290.550781 C 692.640625 292.65625 692.324219 294.753906 691.960938 296.84375 C 691.597656 298.933594 691.1875 301.015625 690.730469 303.089844 C 690.273438 305.160156 689.769531 307.222656 689.21875 309.269531 C 688.671875 311.320312 688.074219 313.355469 687.433594 315.378906 C 686.789062 317.398438 686.101562 319.40625 685.371094 321.398438 C 684.636719 323.390625 683.863281 325.363281 683.039062 327.320312 C 682.21875 329.273438 681.351562 331.210938 680.445312 333.128906 C 679.535156 335.046875 678.582031 336.941406 677.589844 338.816406 C 676.59375 340.691406 675.558594 342.539062 674.480469 344.367188 C 673.402344 346.195312 672.28125 347.996094 671.125 349.773438 C 669.964844 351.550781 668.765625 353.300781 667.527344 355.023438 C 666.289062 356.746094 665.011719 358.441406 663.695312 360.105469 C 662.382812 361.769531 661.03125 363.40625 659.640625 365.007812 C 658.253906 366.613281 656.828125 368.183594 655.367188 369.726562 C 653.910156 371.265625 652.414062 372.769531 650.886719 374.242188 C 649.359375 375.714844 647.800781 377.152344 646.207031 378.554688 C 644.617188 379.957031 642.992188 381.324219 641.339844 382.652344 C 639.683594 383.980469 638 385.269531 636.289062 386.523438 C 634.574219 387.777344 632.835938 388.988281 631.070312 390.164062 C 629.300781 391.339844 627.507812 392.472656 625.691406 393.566406 C 623.871094 394.660156 622.03125 395.710938 620.164062 396.71875 C 618.296875 397.730469 616.410156 398.699219 614.5 399.621094 C 612.59375 400.546875 610.664062 401.429688 608.714844 402.265625 C 606.765625 403.105469 604.796875 403.898438 602.8125 404.648438 C 600.828125 405.394531 598.824219 406.101562 596.808594 406.757812 C 594.792969 407.417969 592.761719 408.03125 590.714844 408.597656 C 588.671875 409.164062 586.617188 409.683594 584.546875 410.160156 C 582.480469 410.632812 580.402344 411.0625 578.316406 411.441406 C 576.226562 411.820312 574.132812 412.15625 572.03125 412.441406 C 569.929688 412.726562 567.820312 412.964844 565.707031 413.15625 C 563.59375 413.347656 561.476562 413.488281 559.359375 413.585938 C 557.238281 413.679688 555.117188 413.726562 552.996094 413.726562 L 442.582031 413.726562 L 442.582031 366.085938 L 552.996094 366.085938 C 554.46875 366.085938 555.9375 366.050781 557.40625 365.980469 C 558.875 365.914062 560.339844 365.808594 561.804688 365.671875 C 563.269531 365.53125 564.726562 365.359375 566.183594 365.152344 C 567.640625 364.945312 569.089844 364.703125 570.535156 364.425781 C 571.980469 364.152344 573.414062 363.839844 574.84375 363.496094 C 576.273438 363.15625 577.695312 362.777344 579.109375 362.367188 C 580.519531 361.957031 581.921875 361.511719 583.3125 361.035156 C 584.703125 360.558594 586.082031 360.046875 587.449219 359.503906 C 588.816406 358.960938 590.167969 358.386719 591.507812 357.78125 C 592.847656 357.175781 594.171875 356.539062 595.484375 355.871094 C 596.792969 355.203125 598.085938 354.5 599.363281 353.773438 C 600.636719 353.042969 601.898438 352.28125 603.136719 351.492188 C 604.378906 350.703125 605.597656 349.886719 606.800781 349.039062 C 608.003906 348.191406 609.183594 347.316406 610.34375 346.414062 C 611.507812 345.511719 612.644531 344.582031 613.761719 343.625 C 614.878906 342.667969 615.972656 341.683594 617.042969 340.675781 C 618.113281 339.667969 619.160156 338.636719 620.179688 337.578125 C 621.199219 336.519531 622.195312 335.4375 623.167969 334.332031 C 624.136719 333.226562 625.082031 332.101562 626 330.953125 C 626.914062 329.800781 627.804688 328.632812 628.667969 327.441406 C 629.527344 326.25 630.363281 325.039062 631.167969 323.808594 C 631.972656 322.578125 632.746094 321.328125 633.492188 320.058594 C 634.238281 318.792969 634.953125 317.507812 635.636719 316.207031 C 636.324219 314.90625 636.976562 313.589844 637.597656 312.257812 C 638.222656 310.925781 638.8125 309.578125 639.371094 308.21875 C 639.929688 306.859375 640.457031 305.484375 640.953125 304.101562 C 641.445312 302.714844 641.90625 301.320312 642.335938 299.914062 C 642.761719 298.507812 643.15625 297.089844 643.519531 295.664062 C 643.878906 294.238281 644.207031 292.808594 644.5 291.367188 C 644.796875 289.925781 645.054688 288.476562 645.28125 287.023438 C 645.503906 285.570312 645.695312 284.113281 645.851562 282.652344 C 646.007812 281.191406 646.128906 279.726562 646.21875 278.257812 C 646.304688 276.789062 646.359375 275.320312 646.375 273.851562 C 646.394531 272.378906 646.375 270.910156 646.324219 269.441406 C 646.273438 267.96875 646.1875 266.503906 646.066406 265.039062 C 645.945312 263.570312 645.789062 262.109375 645.597656 260.652344 C 645.40625 259.195312 645.183594 257.742188 644.925781 256.292969 C 644.667969 254.847656 644.375 253.40625 644.046875 251.972656 C 643.71875 250.539062 643.359375 249.113281 642.964844 247.695312 C 642.570312 246.28125 642.144531 244.871094 641.683594 243.476562 C 641.222656 242.078125 640.726562 240.695312 640.203125 239.320312 C 639.675781 237.949219 639.117188 236.589844 638.527344 235.242188 C 637.9375 233.894531 637.316406 232.5625 636.664062 231.246094 C 636.007812 229.929688 635.324219 228.628906 634.609375 227.34375 C 633.894531 226.058594 633.152344 224.789062 632.375 223.539062 C 631.601562 222.289062 630.796875 221.058594 629.964844 219.847656 C 629.132812 218.636719 628.269531 217.445312 627.382812 216.273438 C 626.492188 215.101562 625.578125 213.953125 624.632812 212.824219 C 623.6875 211.695312 622.71875 210.589844 621.722656 209.507812 C 620.730469 208.425781 619.707031 207.367188 618.664062 206.335938 C 617.617188 205.300781 616.546875 204.292969 615.453125 203.308594 C 614.359375 202.324219 613.246094 201.367188 612.105469 200.4375 C 610.96875 199.507812 609.808594 198.605469 608.625 197.726562 C 607.445312 196.851562 606.242188 196.003906 605.023438 195.1875 C 603.800781 194.367188 602.5625 193.578125 601.304688 192.816406 C 600.042969 192.054688 598.769531 191.324219 597.476562 190.625 C 596.183594 189.925781 594.875 189.257812 593.546875 188.617188 C 592.222656 187.980469 590.886719 187.371094 589.53125 186.796875 C 588.179688 186.222656 586.8125 185.679688 585.433594 185.167969 C 584.054688 184.660156 582.664062 184.179688 581.261719 183.738281 C 579.859375 183.292969 578.449219 182.878906 577.027344 182.503906 C 575.609375 182.125 574.179688 181.78125 572.742188 181.46875 C 571.304688 181.160156 569.859375 180.882812 568.410156 180.640625 C 566.960938 180.398438 565.503906 180.1875 564.042969 180.015625 L 544.039062 177.664062 L 543.035156 157.550781 C 542.917969 155.207031 542.710938 152.875 542.414062 150.546875 C 542.121094 148.21875 541.738281 145.90625 541.269531 143.609375 C 540.800781 141.308594 540.242188 139.03125 539.601562 136.773438 C 538.960938 134.519531 538.238281 132.289062 537.425781 130.085938 C 536.617188 127.886719 535.726562 125.71875 534.753906 123.582031 C 533.78125 121.449219 532.730469 119.351562 531.601562 117.296875 C 530.46875 115.242188 529.261719 113.230469 527.980469 111.265625 C 526.699219 109.300781 525.34375 107.390625 523.917969 105.527344 C 522.492188 103.664062 521 101.859375 519.4375 100.109375 C 517.875 98.359375 516.246094 96.667969 514.558594 95.042969 C 512.867188 93.414062 511.121094 91.855469 509.3125 90.359375 C 507.503906 88.863281 505.644531 87.4375 503.726562 86.082031 C 501.8125 84.726562 499.851562 83.445312 497.839844 82.238281 C 495.828125 81.03125 493.773438 79.902344 491.675781 78.851562 C 489.582031 77.796875 487.445312 76.824219 485.277344 75.933594 C 483.109375 75.042969 480.90625 74.234375 478.675781 73.507812 C 476.445312 72.78125 474.191406 72.140625 471.910156 71.585938 C 469.632812 71.03125 467.335938 70.5625 465.019531 70.179688 C 462.707031 69.796875 460.378906 69.5 458.042969 69.292969 C 455.707031 69.085938 453.367188 68.96875 451.019531 68.9375 C 448.675781 68.90625 446.332031 68.964844 443.988281 69.109375 C 441.648438 69.257812 439.316406 69.492188 436.992188 69.8125 C 434.667969 70.132812 432.359375 70.542969 430.066406 71.039062 C 427.773438 71.535156 425.503906 72.117188 423.253906 72.78125 C 421.003906 73.449219 418.785156 74.199219 416.59375 75.035156 C 414.398438 75.871094 412.242188 76.785156 410.117188 77.78125 C 407.996094 78.777344 405.910156 79.855469 403.871094 81.007812 C 401.828125 82.164062 399.832031 83.390625 397.882812 84.695312 C 395.933594 86 394.035156 87.378906 392.1875 88.824219 C 390.34375 90.273438 388.554688 91.789062 386.820312 93.371094 C 385.089844 94.953125 383.421875 96.597656 381.8125 98.304688 C 380.203125 100.015625 378.664062 101.78125 377.1875 103.605469 L 357.988281 127.320312 L 339.644531 102.929688 C 338.265625 101.089844 336.816406 99.300781 335.304688 97.566406 C 333.789062 95.832031 332.214844 94.15625 330.574219 92.535156 C 328.9375 90.917969 327.242188 89.363281 325.488281 87.871094 C 323.738281 86.378906 321.929688 84.949219 320.074219 83.59375 C 318.214844 82.234375 316.308594 80.945312 314.355469 79.726562 C 312.398438 78.507812 310.402344 77.363281 308.367188 76.292969 C 306.328125 75.222656 304.25 74.226562 302.140625 73.3125 C 300.027344 72.394531 297.882812 71.558594 295.710938 70.796875 C 293.535156 70.039062 291.335938 69.363281 289.113281 68.769531 C 286.890625 68.171875 284.644531 67.660156 282.382812 67.230469 C 280.121094 66.800781 277.847656 66.453125 275.558594 66.191406 C 273.273438 65.933594 270.976562 65.753906 268.675781 65.664062 C 266.375 65.570312 264.074219 65.566406 261.773438 65.644531 C 259.472656 65.722656 257.179688 65.886719 254.890625 66.132812 C 252.601562 66.382812 250.324219 66.714844 248.058594 67.132812 C 245.796875 67.550781 243.550781 68.050781 241.320312 68.632812 C 239.09375 69.214844 236.890625 69.878906 234.714844 70.625 C 232.535156 71.371094 230.386719 72.199219 228.269531 73.101562 C 226.152344 74.007812 224.070312 74.988281 222.027344 76.046875 C 219.984375 77.109375 217.980469 78.242188 216.019531 79.449219 C 214.058594 80.65625 212.144531 81.933594 210.28125 83.28125 C 208.414062 84.628906 206.601562 86.046875 204.839844 87.527344 C 203.078125 89.011719 201.371094 90.558594 199.726562 92.167969 C 198.078125 93.777344 196.492188 95.441406 194.96875 97.167969 C 193.445312 98.894531 191.988281 100.675781 190.597656 102.511719 C 189.203125 104.34375 187.882812 106.226562 186.628906 108.160156 C 185.378906 110.089844 184.199219 112.066406 183.089844 114.085938 C 181.984375 116.105469 180.953125 118.164062 180 120.257812 C 179.046875 122.351562 178.171875 124.480469 177.375 126.640625 C 176.578125 128.800781 175.863281 130.988281 175.226562 133.203125 C 174.59375 135.414062 174.039062 137.648438 173.570312 139.902344 C 173.101562 142.15625 172.714844 144.425781 172.414062 146.707031 L 169.605469 168.121094 L 147.199219 167.390625 C 146.445312 167.363281 145.695312 167.332031 144.9375 167.332031 C 142.601562 167.332031 140.265625 167.421875 137.9375 167.597656 C 135.605469 167.773438 133.285156 168.035156 130.972656 168.382812 C 128.664062 168.734375 126.367188 169.167969 124.089844 169.691406 C 121.8125 170.214844 119.554688 170.820312 117.324219 171.511719 C 115.089844 172.203125 112.886719 172.976562 110.714844 173.832031 C 108.539062 174.691406 106.398438 175.628906 104.296875 176.644531 C 102.191406 177.664062 100.128906 178.757812 98.105469 179.929688 C 96.085938 181.101562 94.109375 182.347656 92.179688 183.667969 C 90.253906 184.992188 88.375 186.382812 86.550781 187.84375 C 84.730469 189.304688 82.960938 190.832031 81.253906 192.425781 C 79.542969 194.019531 77.898438 195.675781 76.3125 197.394531 C 74.726562 199.113281 73.210938 200.886719 71.757812 202.71875 C 70.308594 204.550781 68.925781 206.4375 67.617188 208.371094 C 66.304688 210.308594 65.070312 212.289062 63.910156 214.316406 C 62.75 216.347656 61.664062 218.414062 60.660156 220.527344 C 59.652344 222.636719 58.730469 224.78125 57.882812 226.960938 C 57.039062 229.136719 56.277344 231.347656 55.597656 233.582031 C 54.921875 235.820312 54.328125 238.078125 53.816406 240.359375 C 53.308594 242.640625 52.886719 244.9375 52.546875 247.25 C 52.210938 249.5625 51.960938 251.886719 51.800781 254.21875 C 51.636719 256.546875 51.5625 258.882812 51.574219 261.21875 C 51.589844 263.558594 51.691406 265.890625 51.878906 268.21875 C 52.066406 270.550781 52.339844 272.871094 52.703125 275.179688 C 53.066406 277.488281 53.515625 279.78125 54.050781 282.054688 C 54.582031 284.332031 55.203125 286.582031 55.90625 288.8125 C 56.609375 291.039062 57.398438 293.238281 58.265625 295.410156 C 59.132812 297.578125 60.082031 299.710938 61.113281 301.8125 C 62.140625 303.910156 63.246094 305.964844 64.429688 307.980469 C 65.613281 309.996094 66.871094 311.964844 68.203125 313.886719 C 69.535156 315.808594 70.9375 317.675781 72.410156 319.492188 C 73.878906 321.308594 75.417969 323.066406 77.023438 324.765625 C 78.625 326.464844 80.289062 328.101562 82.019531 329.679688 L 94.054688 340.671875 L 88.164062 355.871094 C 87.546875 357.464844 86.976562 359.074219 86.449219 360.699219 C 85.917969 362.320312 85.433594 363.960938 84.996094 365.609375 C 84.558594 367.261719 84.164062 368.921875 83.816406 370.59375 C 83.472656 372.265625 83.167969 373.945312 82.914062 375.636719 C 82.660156 377.324219 82.449219 379.019531 82.289062 380.71875 C 82.125 382.417969 82.011719 384.121094 81.941406 385.828125 C 81.875 387.535156 81.851562 389.242188 81.875 390.949219 C 81.902344 392.660156 81.972656 394.363281 82.09375 396.066406 C 82.210938 397.773438 82.375 399.472656 82.585938 401.164062 C 82.800781 402.859375 83.058594 404.546875 83.363281 406.230469 C 83.667969 407.910156 84.015625 409.582031 84.414062 411.242188 C 84.808594 412.902344 85.25 414.550781 85.738281 416.1875 C 86.222656 417.828125 86.753906 419.449219 87.332031 421.058594 C 87.90625 422.664062 88.527344 424.257812 89.1875 425.828125 C 89.851562 427.402344 90.558594 428.957031 91.304688 430.492188 C 92.054688 432.027344 92.84375 433.542969 93.675781 435.035156 C 94.507812 436.527344 95.378906 437.996094 96.289062 439.4375 C 97.203125 440.882812 98.152344 442.300781 99.140625 443.691406 C 100.132812 445.085938 101.160156 446.449219 102.222656 447.785156 C 103.289062 449.121094 104.386719 450.425781 105.523438 451.699219 C 106.660156 452.976562 107.832031 454.21875 109.035156 455.429688 C 110.238281 456.640625 111.476562 457.816406 112.746094 458.960938 C 114.015625 460.105469 115.3125 461.210938 116.644531 462.28125 C 117.972656 463.355469 119.332031 464.390625 120.71875 465.386719 C 122.105469 466.382812 123.519531 467.34375 124.957031 468.261719 C 126.394531 469.179688 127.859375 470.0625 129.347656 470.902344 C 130.832031 471.738281 132.34375 472.539062 133.875 473.292969 C 135.40625 474.050781 136.957031 474.765625 138.527344 475.4375 C 140.097656 476.109375 141.683594 476.738281 143.289062 477.320312 C 144.894531 477.90625 146.515625 478.445312 148.148438 478.941406 C 149.78125 479.4375 151.429688 479.886719 153.089844 480.292969 C 154.746094 480.695312 156.417969 481.054688 158.097656 481.371094 C 159.773438 481.683594 161.460938 481.949219 163.15625 482.171875 C 164.847656 482.394531 166.546875 482.566406 168.25 482.695312 C 169.953125 482.824219 171.65625 482.90625 173.367188 482.9375 C 175.074219 482.972656 176.78125 482.960938 178.488281 482.902344 C 180.195312 482.84375 181.898438 482.734375 183.597656 482.582031 C 185.300781 482.429688 186.996094 482.230469 188.6875 481.984375 C 190.375 481.738281 192.058594 481.445312 193.730469 481.109375 C 195.40625 480.769531 197.070312 480.386719 198.722656 479.957031 C 200.375 479.527344 202.015625 479.050781 203.644531 478.53125 C 205.269531 478.011719 206.882812 477.449219 208.476562 476.839844 C 210.074219 476.234375 211.652344 475.582031 213.210938 474.886719 C 214.773438 474.195312 216.3125 473.457031 217.832031 472.675781 C 219.351562 471.898438 220.851562 471.078125 222.324219 470.21875 C 223.800781 469.355469 225.25 468.453125 226.675781 467.515625 C 228.101562 466.574219 229.5 465.59375 230.871094 464.578125 C 232.242188 463.558594 233.585938 462.503906 234.898438 461.414062 C 236.214844 460.320312 237.496094 459.195312 238.746094 458.035156 C 240 456.871094 241.21875 455.675781 242.40625 454.449219 C 243.59375 453.21875 244.742188 451.960938 245.859375 450.667969 C 246.980469 449.375 248.058594 448.054688 249.105469 446.703125 C 250.148438 445.351562 251.15625 443.972656 252.125 442.566406 C 253.09375 441.160156 254.023438 439.730469 254.914062 438.273438 C 255.804688 436.816406 256.65625 435.335938 257.464844 433.832031 C 258.273438 432.328125 259.042969 430.800781 259.765625 429.253906 C 260.492188 427.710938 261.175781 426.144531 261.816406 424.5625 C 262.453125 422.976562 263.050781 421.378906 263.601562 419.761719 C 264.15625 418.144531 264.660156 416.515625 265.125 414.871094 C 265.585938 413.226562 266.003906 411.570312 266.375 409.902344 C 266.746094 408.238281 267.074219 406.5625 267.351562 404.875 C 267.632812 403.191406 267.867188 401.5 268.054688 399.800781 C 268.238281 398.105469 268.378906 396.402344 268.472656 394.699219 C 268.566406 392.992188 268.613281 391.285156 268.613281 389.578125 L 268.613281 354.546875 L 301.1875 367.433594 C 306.566406 369.558594 432.800781 421.472656 432.800781 594.09375 Z M 432.800781 594.09375 " fill-opacity="1" fill-rule="nonzero"/></g><g clip-path="url(#bb628a9979)"><path fill="#4157be" d="M 432.800781 623.015625 L 385.164062 623.015625 C 385.164062 529.71875 340.921875 480.113281 310.851562 457.179688 C 310.226562 459.386719 309.546875 461.578125 308.8125 463.75 C 308.078125 465.925781 307.289062 468.078125 306.449219 470.214844 C 305.609375 472.351562 304.71875 474.464844 303.777344 476.554688 C 302.835938 478.648438 301.839844 480.714844 300.796875 482.761719 C 299.753906 484.804688 298.660156 486.820312 297.519531 488.8125 C 296.378906 490.800781 295.1875 492.761719 293.949219 494.695312 C 292.710938 496.625 291.425781 498.527344 290.097656 500.398438 C 288.765625 502.265625 287.390625 504.101562 285.972656 505.902344 C 284.550781 507.707031 283.085938 509.472656 281.582031 511.203125 C 280.074219 512.933594 278.527344 514.628906 276.9375 516.285156 C 275.347656 517.9375 273.71875 519.554688 272.054688 521.128906 C 270.386719 522.707031 268.679688 524.238281 266.9375 525.734375 C 265.195312 527.226562 263.414062 528.675781 261.601562 530.082031 C 259.789062 531.484375 257.941406 532.847656 256.0625 534.164062 C 254.183594 535.476562 252.269531 536.746094 250.328125 537.96875 C 248.386719 539.191406 246.417969 540.367188 244.417969 541.492188 C 242.417969 542.617188 240.390625 543.695312 238.339844 544.722656 C 236.289062 545.75 234.214844 546.726562 232.113281 547.652344 C 230.015625 548.578125 227.894531 549.453125 225.75 550.273438 C 223.609375 551.097656 221.449219 551.867188 219.269531 552.582031 C 217.089844 553.300781 214.894531 553.964844 212.679688 554.574219 C 210.46875 555.183594 208.242188 555.738281 206.003906 556.238281 C 203.765625 556.742188 201.515625 557.1875 199.253906 557.578125 C 196.992188 557.96875 194.722656 558.304688 192.445312 558.585938 C 190.167969 558.867188 187.886719 559.089844 185.597656 559.261719 C 183.308594 559.429688 181.019531 559.542969 178.722656 559.601562 C 176.429688 559.65625 174.136719 559.660156 171.84375 559.605469 C 169.546875 559.550781 167.257812 559.4375 164.96875 559.273438 C 162.679688 559.105469 160.398438 558.882812 158.121094 558.605469 C 155.839844 558.328125 153.570312 557.992188 151.3125 557.605469 C 149.050781 557.214844 146.796875 556.773438 144.558594 556.273438 C 142.320312 555.773438 140.09375 555.222656 137.878906 554.613281 C 135.667969 554.007812 133.472656 553.34375 131.289062 552.632812 C 129.109375 551.917969 126.949219 551.148438 124.804688 550.328125 C 122.664062 549.507812 120.539062 548.636719 118.441406 547.714844 C 116.339844 546.789062 114.261719 545.816406 112.210938 544.789062 C 110.15625 543.765625 108.128906 542.691406 106.128906 541.566406 C 104.128906 540.441406 102.15625 539.269531 100.214844 538.050781 C 98.269531 536.828125 96.359375 535.5625 94.476562 534.25 C 92.597656 532.9375 90.746094 531.578125 88.933594 530.171875 C 87.117188 528.769531 85.339844 527.320312 83.59375 525.832031 C 81.847656 524.339844 80.140625 522.808594 78.472656 521.234375 C 76.804688 519.660156 75.171875 518.046875 73.582031 516.394531 C 71.992188 514.738281 70.441406 513.046875 68.933594 511.320312 C 67.425781 509.589844 65.960938 507.824219 64.539062 506.023438 C 63.117188 504.222656 61.738281 502.386719 60.40625 500.519531 C 59.074219 498.652344 57.789062 496.753906 56.546875 494.820312 C 55.308594 492.890625 54.117188 490.929688 52.972656 488.941406 C 51.828125 486.953125 50.730469 484.9375 49.6875 482.894531 C 48.640625 480.851562 47.644531 478.785156 46.699219 476.695312 C 45.753906 474.605469 44.863281 472.492188 44.019531 470.355469 C 43.179688 468.222656 42.390625 466.066406 41.652344 463.894531 C 40.917969 461.722656 40.234375 459.53125 39.605469 457.324219 C 38.972656 455.117188 38.398438 452.898438 37.878906 450.664062 C 37.355469 448.429688 36.890625 446.183594 36.476562 443.925781 C 36.066406 441.667969 35.710938 439.402344 35.410156 437.128906 C 35.109375 434.851562 34.863281 432.570312 34.671875 430.285156 C 34.484375 428 34.347656 425.707031 34.269531 423.414062 C 34.191406 421.121094 34.171875 418.828125 34.207031 416.535156 C 34.238281 414.238281 34.328125 411.949219 34.476562 409.65625 C 34.621094 407.367188 34.824219 405.082031 35.082031 402.800781 C 35.335938 400.523438 35.652344 398.25 36.019531 395.984375 C 36.386719 393.71875 36.8125 391.464844 37.289062 389.222656 C 37.769531 386.976562 38.300781 384.746094 38.886719 382.527344 C 36.777344 380.121094 34.753906 377.640625 32.8125 375.097656 C 30.871094 372.550781 29.019531 369.941406 27.253906 367.269531 C 25.492188 364.597656 23.820312 361.867188 22.242188 359.082031 C 20.664062 356.292969 19.183594 353.457031 17.800781 350.570312 C 16.417969 347.683594 15.132812 344.753906 13.949219 341.777344 C 12.761719 338.804688 11.679688 335.792969 10.703125 332.742188 C 9.722656 329.695312 8.847656 326.617188 8.078125 323.507812 C 7.308594 320.402344 6.644531 317.269531 6.089844 314.117188 C 5.53125 310.964844 5.082031 307.796875 4.742188 304.613281 C 4.402344 301.429688 4.171875 298.238281 4.046875 295.039062 C 3.921875 291.839844 3.910156 288.640625 4.003906 285.4375 C 4.097656 282.238281 4.300781 279.046875 4.613281 275.859375 C 4.925781 272.671875 5.347656 269.5 5.875 266.34375 C 6.402344 263.183594 7.039062 260.046875 7.78125 256.933594 C 8.523438 253.820312 9.371094 250.734375 10.324219 247.675781 C 11.273438 244.621094 12.328125 241.597656 13.488281 238.613281 C 14.644531 235.628906 15.90625 232.6875 17.261719 229.789062 C 18.621094 226.886719 20.078125 224.039062 21.628906 221.238281 C 23.183594 218.4375 24.828125 215.695312 26.566406 213.007812 C 28.308594 210.316406 30.136719 207.691406 32.054688 205.128906 C 33.972656 202.566406 35.976562 200.070312 38.066406 197.644531 C 40.152344 195.214844 42.320312 192.863281 44.570312 190.585938 C 46.820312 188.304688 49.140625 186.105469 51.542969 183.984375 C 53.941406 181.863281 56.40625 179.828125 58.945312 177.875 C 61.480469 175.921875 64.082031 174.054688 66.746094 172.28125 C 69.410156 170.503906 72.132812 168.820312 74.914062 167.230469 C 77.691406 165.640625 80.519531 164.148438 83.402344 162.75 C 86.28125 161.351562 89.207031 160.054688 92.175781 158.855469 C 95.144531 157.660156 98.152344 156.5625 101.195312 155.570312 C 104.238281 154.578125 107.3125 153.6875 110.417969 152.902344 C 113.523438 152.121094 116.648438 151.441406 119.800781 150.871094 C 122.949219 150.300781 126.117188 149.835938 129.296875 149.484375 C 130.34375 145.824219 131.53125 142.214844 132.867188 138.652344 C 134.203125 135.089844 135.679688 131.589844 137.300781 128.148438 C 138.917969 124.703125 140.671875 121.332031 142.5625 118.03125 C 144.453125 114.730469 146.472656 111.511719 148.621094 108.375 C 150.773438 105.234375 153.046875 102.191406 155.441406 99.234375 C 157.835938 96.28125 160.347656 93.425781 162.972656 90.675781 C 165.601562 87.921875 168.332031 85.28125 171.171875 82.75 C 174.011719 80.21875 176.949219 77.808594 179.980469 75.511719 C 183.015625 73.21875 186.136719 71.050781 189.347656 69.007812 C 192.554688 66.964844 195.839844 65.054688 199.203125 63.277344 C 202.566406 61.5 205.996094 59.863281 209.492188 58.359375 C 212.988281 56.859375 216.539062 55.503906 220.144531 54.289062 C 223.746094 53.074219 227.394531 52.007812 231.085938 51.089844 C 234.777344 50.167969 238.5 49.398438 242.253906 48.78125 C 246.007812 48.160156 249.777344 47.695312 253.570312 47.378906 C 257.359375 47.0625 261.15625 46.902344 264.960938 46.894531 C 269.273438 46.875 273.574219 47.058594 277.867188 47.4375 C 282.160156 47.820312 286.429688 48.398438 290.667969 49.175781 C 294.910156 49.949219 299.105469 50.917969 303.257812 52.082031 C 307.40625 53.246094 311.496094 54.601562 315.519531 56.144531 C 319.546875 57.6875 323.492188 59.410156 327.355469 61.320312 C 331.222656 63.226562 334.992188 65.308594 338.664062 67.566406 C 342.335938 69.820312 345.898438 72.242188 349.347656 74.828125 C 352.796875 77.414062 356.117188 80.15625 359.3125 83.046875 C 361.660156 81.085938 364.066406 79.203125 366.535156 77.398438 C 369.003906 75.59375 371.53125 73.871094 374.109375 72.234375 C 376.691406 70.59375 379.324219 69.039062 382.003906 67.570312 C 384.6875 66.097656 387.414062 64.71875 390.1875 63.425781 C 392.957031 62.136719 395.769531 60.933594 398.617188 59.828125 C 401.46875 58.71875 404.351562 57.703125 407.265625 56.78125 C 410.183594 55.859375 413.125 55.035156 416.09375 54.304688 C 419.066406 53.574219 422.054688 52.941406 425.066406 52.40625 C 428.078125 51.871094 431.101562 51.433594 434.140625 51.09375 C 437.179688 50.753906 440.226562 50.515625 443.28125 50.375 C 446.335938 50.234375 449.394531 50.191406 452.449219 50.25 C 455.507812 50.308594 458.558594 50.464844 461.609375 50.722656 C 464.65625 50.980469 467.691406 51.335938 470.714844 51.789062 C 473.738281 52.242188 476.746094 52.792969 479.734375 53.445312 C 482.722656 54.09375 485.683594 54.839844 488.625 55.683594 C 491.566406 56.523438 494.472656 57.460938 497.351562 58.492188 C 500.230469 59.523438 503.074219 60.648438 505.878906 61.863281 C 508.683594 63.082031 511.449219 64.386719 514.167969 65.785156 C 516.890625 67.179688 519.5625 68.664062 522.1875 70.234375 C 524.8125 71.800781 527.382812 73.457031 529.898438 75.195312 C 532.414062 76.929688 534.871094 78.746094 537.269531 80.644531 C 539.667969 82.542969 542.003906 84.515625 544.273438 86.5625 C 546.542969 88.613281 548.746094 90.730469 550.878906 92.925781 C 553.011719 95.117188 555.070312 97.375 557.054688 99.699219 C 559.039062 102.027344 560.949219 104.414062 562.777344 106.863281 C 564.605469 109.316406 566.355469 111.820312 568.023438 114.386719 C 569.691406 116.949219 571.273438 119.5625 572.769531 122.230469 C 574.265625 124.898438 575.675781 127.609375 576.996094 130.367188 C 578.316406 133.125 579.546875 135.925781 580.683594 138.761719 C 581.824219 141.601562 582.867188 144.472656 583.820312 147.378906 C 584.769531 150.285156 585.628906 153.21875 586.386719 156.179688 C 587.148438 159.144531 587.8125 162.125 588.378906 165.132812 C 590.433594 165.664062 592.476562 166.242188 594.503906 166.863281 C 596.53125 167.488281 598.542969 168.160156 600.542969 168.875 C 602.539062 169.589844 604.519531 170.347656 606.484375 171.152344 C 608.445312 171.957031 610.390625 172.804688 612.316406 173.695312 C 614.242188 174.589844 616.144531 175.523438 618.027344 176.5 C 619.910156 177.480469 621.769531 178.5 623.605469 179.5625 C 625.445312 180.621094 627.253906 181.726562 629.042969 182.871094 C 630.828125 184.011719 632.589844 185.195312 634.324219 186.417969 C 636.058594 187.644531 637.761719 188.90625 639.4375 190.203125 C 641.117188 191.503906 642.761719 192.84375 644.378906 194.214844 C 645.996094 195.589844 647.578125 197 649.132812 198.449219 C 650.683594 199.894531 652.203125 201.375 653.691406 202.886719 C 655.175781 204.402344 656.625 205.949219 658.042969 207.53125 C 659.457031 209.109375 660.839844 210.722656 662.179688 212.363281 C 663.523438 214.007812 664.832031 215.679688 666.097656 217.378906 C 667.367188 219.082031 668.59375 220.808594 669.785156 222.566406 C 670.972656 224.324219 672.125 226.105469 673.234375 227.914062 C 674.34375 229.722656 675.410156 231.554688 676.4375 233.414062 C 677.464844 235.269531 678.445312 237.148438 679.390625 239.050781 C 680.332031 240.949219 681.230469 242.871094 682.085938 244.8125 C 682.9375 246.753906 683.75 248.714844 684.515625 250.695312 C 685.28125 252.671875 686.003906 254.667969 686.679688 256.679688 C 687.355469 258.6875 687.988281 260.714844 688.574219 262.753906 C 689.160156 264.792969 689.695312 266.84375 690.191406 268.910156 C 690.683594 270.972656 691.128906 273.046875 691.527344 275.128906 C 691.925781 277.214844 692.277344 279.304688 692.582031 281.40625 C 692.886719 283.503906 693.144531 285.609375 693.351562 287.722656 C 693.5625 289.832031 693.722656 291.949219 693.835938 294.066406 C 693.949219 296.1875 694.015625 298.304688 694.035156 300.425781 C 694.054688 302.550781 694.023438 304.671875 693.945312 306.789062 C 693.867188 308.910156 693.742188 311.027344 693.570312 313.144531 C 693.398438 315.257812 693.175781 317.367188 692.90625 319.472656 C 692.640625 321.578125 692.324219 323.675781 691.960938 325.765625 C 691.597656 327.855469 691.1875 329.9375 690.730469 332.007812 C 690.273438 334.078125 689.769531 336.140625 689.21875 338.191406 C 688.671875 340.238281 688.074219 342.273438 687.433594 344.296875 C 686.789062 346.320312 686.101562 348.324219 685.371094 350.316406 C 684.636719 352.308594 683.863281 354.28125 683.039062 356.238281 C 682.21875 358.195312 681.351562 360.132812 680.445312 362.046875 C 679.535156 363.964844 678.582031 365.859375 677.589844 367.734375 C 676.59375 369.609375 675.558594 371.460938 674.480469 373.289062 C 673.402344 375.113281 672.28125 376.917969 671.125 378.695312 C 669.964844 380.46875 668.765625 382.21875 667.527344 383.941406 C 666.289062 385.667969 665.011719 387.359375 663.695312 389.023438 C 662.382812 390.691406 661.03125 392.324219 659.640625 393.929688 C 658.253906 395.53125 656.828125 397.105469 655.367188 398.644531 C 653.910156 400.183594 652.414062 401.691406 650.886719 403.164062 C 649.359375 404.636719 647.800781 406.074219 646.207031 407.476562 C 644.617188 408.875 642.992188 410.242188 641.339844 411.570312 C 639.683594 412.898438 638 414.191406 636.289062 415.441406 C 634.574219 416.695312 632.835938 417.910156 631.070312 419.082031 C 629.300781 420.257812 627.507812 421.390625 625.691406 422.484375 C 623.871094 423.578125 622.03125 424.628906 620.164062 425.640625 C 618.296875 426.648438 616.410156 427.617188 614.5 428.542969 C 612.59375 429.46875 610.664062 430.347656 608.714844 431.1875 C 606.765625 432.023438 604.796875 432.816406 602.8125 433.566406 C 600.828125 434.316406 598.824219 435.019531 596.808594 435.679688 C 594.792969 436.335938 592.761719 436.949219 590.714844 437.515625 C 588.671875 438.082031 586.617188 438.605469 584.546875 439.078125 C 582.480469 439.554688 580.402344 439.980469 578.316406 440.359375 C 576.226562 440.742188 574.132812 441.074219 572.03125 441.359375 C 569.929688 441.644531 567.820312 441.882812 565.707031 442.074219 C 563.59375 442.265625 561.476562 442.410156 559.359375 442.503906 C 557.238281 442.597656 555.117188 442.644531 552.996094 442.644531 L 442.582031 442.644531 L 442.582031 395.003906 L 552.996094 395.003906 C 554.46875 395.003906 555.9375 394.96875 557.40625 394.902344 C 558.875 394.832031 560.339844 394.730469 561.804688 394.589844 C 563.269531 394.453125 564.726562 394.277344 566.183594 394.070312 C 567.640625 393.863281 569.089844 393.621094 570.535156 393.347656 C 571.980469 393.070312 573.414062 392.761719 574.84375 392.417969 C 576.273438 392.074219 577.695312 391.695312 579.109375 391.285156 C 580.519531 390.875 581.921875 390.429688 583.3125 389.953125 C 584.703125 389.476562 586.082031 388.964844 587.449219 388.425781 C 588.816406 387.882812 590.167969 387.308594 591.507812 386.703125 C 592.847656 386.09375 594.171875 385.457031 595.484375 384.789062 C 596.792969 384.121094 598.085938 383.421875 599.363281 382.691406 C 600.636719 381.960938 601.898438 381.203125 603.136719 380.414062 C 604.378906 379.625 605.597656 378.804688 606.800781 377.957031 C 608.003906 377.109375 609.183594 376.234375 610.34375 375.332031 C 611.507812 374.429688 612.644531 373.5 613.761719 372.542969 C 614.878906 371.585938 615.972656 370.605469 617.042969 369.597656 C 618.113281 368.585938 619.160156 367.554688 620.179688 366.496094 C 621.199219 365.4375 622.195312 364.359375 623.167969 363.253906 C 624.136719 362.148438 625.082031 361.019531 626 359.871094 C 626.914062 358.722656 627.804688 357.550781 628.667969 356.359375 C 629.527344 355.167969 630.363281 353.957031 631.167969 352.726562 C 631.972656 351.496094 632.746094 350.246094 633.492188 348.980469 C 634.238281 347.710938 634.953125 346.425781 635.636719 345.125 C 636.324219 343.824219 636.976562 342.507812 637.597656 341.175781 C 638.222656 339.84375 638.8125 338.496094 639.371094 337.136719 C 639.929688 335.777344 640.457031 334.40625 640.953125 333.019531 C 641.445312 331.636719 641.90625 330.238281 642.335938 328.832031 C 642.761719 327.425781 643.15625 326.011719 643.519531 324.585938 C 643.878906 323.160156 644.207031 321.726562 644.5 320.285156 C 644.796875 318.84375 645.054688 317.398438 645.28125 315.945312 C 645.503906 314.492188 645.695312 313.035156 645.851562 311.570312 C 646.007812 310.109375 646.128906 308.644531 646.21875 307.175781 C 646.304688 305.707031 646.359375 304.238281 646.375 302.769531 C 646.394531 301.300781 646.375 299.828125 646.324219 298.359375 C 646.273438 296.890625 646.1875 295.421875 646.066406 293.957031 C 645.945312 292.492188 645.789062 291.03125 645.597656 289.570312 C 645.40625 288.113281 645.183594 286.660156 644.925781 285.210938 C 644.667969 283.765625 644.375 282.324219 644.046875 280.890625 C 643.71875 279.457031 643.359375 278.03125 642.964844 276.617188 C 642.570312 275.199219 642.144531 273.792969 641.683594 272.394531 C 641.222656 271 640.726562 269.613281 640.203125 268.242188 C 639.675781 266.867188 639.117188 265.507812 638.527344 264.160156 C 637.9375 262.816406 637.316406 261.484375 636.664062 260.164062 C 636.007812 258.847656 635.324219 257.546875 634.609375 256.261719 C 633.894531 254.976562 633.152344 253.710938 632.375 252.460938 C 631.601562 251.210938 630.796875 249.976562 629.964844 248.765625 C 629.132812 247.554688 628.269531 246.363281 627.382812 245.191406 C 626.492188 244.019531 625.578125 242.871094 624.632812 241.742188 C 623.6875 240.617188 622.71875 239.511719 621.722656 238.429688 C 620.730469 237.347656 619.707031 236.289062 618.664062 235.253906 C 617.617188 234.21875 616.546875 233.210938 615.453125 232.226562 C 614.359375 231.246094 613.246094 230.289062 612.105469 229.359375 C 610.96875 228.425781 609.808594 227.523438 608.625 226.648438 C 607.445312 225.773438 606.242188 224.925781 605.023438 224.105469 C 603.800781 223.285156 602.5625 222.496094 601.304688 221.734375 C 600.042969 220.976562 598.769531 220.246094 597.476562 219.546875 C 596.183594 218.84375 594.875 218.175781 593.546875 217.539062 C 592.222656 216.898438 590.886719 216.292969 589.53125 215.71875 C 588.179688 215.140625 586.8125 214.597656 585.433594 214.089844 C 584.054688 213.578125 582.664062 213.101562 581.261719 212.65625 C 579.859375 212.210938 578.449219 211.800781 577.027344 211.421875 C 575.609375 211.042969 574.179688 210.699219 572.742188 210.386719 C 571.304688 210.078125 569.859375 209.800781 568.410156 209.558594 C 566.960938 209.316406 565.503906 209.109375 564.042969 208.933594 L 544.039062 206.582031 L 543.035156 186.472656 C 542.917969 184.128906 542.710938 181.792969 542.414062 179.464844 C 542.121094 177.136719 541.738281 174.824219 541.269531 172.527344 C 540.800781 170.230469 540.242188 167.949219 539.601562 165.695312 C 538.960938 163.4375 538.238281 161.207031 537.425781 159.007812 C 536.617188 156.804688 535.726562 154.636719 534.753906 152.5 C 533.78125 150.367188 532.730469 148.273438 531.601562 146.214844 C 530.46875 144.160156 529.261719 142.152344 527.980469 140.1875 C 526.699219 138.222656 525.34375 136.308594 523.917969 134.445312 C 522.492188 132.582031 521 130.777344 519.4375 129.027344 C 517.875 127.277344 516.246094 125.589844 514.558594 123.960938 C 512.867188 122.335938 511.121094 120.773438 509.3125 119.277344 C 507.503906 117.78125 505.644531 116.355469 503.726562 115 C 501.8125 113.648438 499.851562 112.367188 497.839844 111.160156 C 495.828125 109.953125 493.773438 108.820312 491.675781 107.769531 C 489.582031 106.714844 487.445312 105.746094 485.277344 104.851562 C 483.109375 103.960938 480.90625 103.152344 478.675781 102.425781 C 476.445312 101.703125 474.191406 101.0625 471.910156 100.503906 C 469.632812 99.949219 467.335938 99.480469 465.019531 99.097656 C 462.707031 98.714844 460.378906 98.421875 458.042969 98.214844 C 455.707031 98.007812 453.367188 97.886719 451.019531 97.855469 C 448.675781 97.828125 446.332031 97.882812 443.988281 98.03125 C 441.648438 98.175781 439.316406 98.410156 436.992188 98.730469 C 434.667969 99.054688 432.359375 99.460938 430.066406 99.957031 C 427.773438 100.453125 425.503906 101.035156 423.253906 101.703125 C 421.003906 102.367188 418.785156 103.121094 416.59375 103.953125 C 414.398438 104.789062 412.242188 105.703125 410.117188 106.703125 C 407.996094 107.699219 405.910156 108.773438 403.871094 109.929688 C 401.828125 111.082031 399.832031 112.3125 397.882812 113.617188 C 395.933594 114.921875 394.035156 116.296875 392.1875 117.746094 C 390.34375 119.191406 388.554688 120.707031 386.820312 122.289062 C 385.089844 123.871094 383.421875 125.515625 381.8125 127.226562 C 380.203125 128.933594 378.664062 130.699219 377.1875 132.523438 L 357.988281 156.238281 L 339.644531 131.851562 C 338.265625 130.007812 336.816406 128.21875 335.304688 126.484375 C 333.789062 124.75 332.214844 123.074219 330.574219 121.457031 C 328.9375 119.835938 327.242188 118.28125 325.488281 116.789062 C 323.738281 115.296875 321.929688 113.871094 320.074219 112.511719 C 318.214844 111.152344 316.308594 109.863281 314.355469 108.644531 C 312.398438 107.425781 310.402344 106.28125 308.367188 105.210938 C 306.328125 104.140625 304.25 103.148438 302.140625 102.230469 C 300.027344 101.3125 297.882812 100.476562 295.710938 99.71875 C 293.535156 98.960938 291.335938 98.28125 289.113281 97.6875 C 286.890625 97.089844 284.644531 96.578125 282.382812 96.148438 C 280.121094 95.71875 277.847656 95.375 275.558594 95.113281 C 273.273438 94.851562 270.976562 94.675781 268.675781 94.582031 C 266.375 94.492188 264.074219 94.484375 261.773438 94.5625 C 259.472656 94.640625 257.179688 94.804688 254.890625 95.054688 C 252.601562 95.300781 250.324219 95.636719 248.058594 96.050781 C 245.796875 96.46875 243.550781 96.96875 241.320312 97.550781 C 239.09375 98.136719 236.890625 98.800781 234.714844 99.546875 C 232.535156 100.292969 230.386719 101.117188 228.269531 102.023438 C 226.152344 102.925781 224.070312 103.910156 222.027344 104.96875 C 219.984375 106.027344 217.980469 107.160156 216.019531 108.367188 C 214.058594 109.574219 212.144531 110.851562 210.28125 112.199219 C 208.414062 113.550781 206.601562 114.964844 204.839844 116.449219 C 203.078125 117.929688 201.371094 119.476562 199.726562 121.085938 C 198.078125 122.695312 196.492188 124.363281 194.96875 126.089844 C 193.445312 127.816406 191.988281 129.59375 190.597656 131.429688 C 189.203125 133.261719 187.882812 135.148438 186.628906 137.078125 C 185.378906 139.011719 184.199219 140.984375 183.089844 143.003906 C 181.984375 145.023438 180.953125 147.082031 180 149.175781 C 179.046875 151.273438 178.171875 153.402344 177.375 155.5625 C 176.578125 157.722656 175.863281 159.90625 175.226562 162.121094 C 174.59375 164.335938 174.039062 166.566406 173.570312 168.820312 C 173.101562 171.074219 172.714844 173.34375 172.414062 175.628906 L 169.605469 197.039062 L 147.199219 196.3125 C 146.445312 196.285156 145.695312 196.253906 144.9375 196.253906 C 142.601562 196.253906 140.265625 196.339844 137.9375 196.515625 C 135.605469 196.691406 133.285156 196.953125 130.972656 197.304688 C 128.664062 197.652344 126.367188 198.089844 124.089844 198.609375 C 121.8125 199.132812 119.554688 199.738281 117.324219 200.429688 C 115.089844 201.121094 112.886719 201.894531 110.714844 202.753906 C 108.539062 203.609375 106.398438 204.546875 104.296875 205.566406 C 102.191406 206.582031 100.128906 207.675781 98.105469 208.847656 C 96.085938 210.023438 94.109375 211.269531 92.179688 212.589844 C 90.253906 213.910156 88.375 215.300781 86.550781 216.761719 C 84.730469 218.222656 82.960938 219.753906 81.253906 221.347656 C 79.542969 222.941406 77.898438 224.597656 76.3125 226.316406 C 74.726562 228.03125 73.210938 229.808594 71.757812 231.640625 C 70.308594 233.472656 68.925781 235.355469 67.617188 237.292969 C 66.304688 239.226562 65.070312 241.210938 63.910156 243.238281 C 62.75 245.265625 61.664062 247.335938 60.660156 249.445312 C 59.652344 251.554688 58.730469 253.699219 57.882812 255.878906 C 57.039062 258.058594 56.277344 260.265625 55.597656 262.503906 C 54.921875 264.738281 54.328125 266.996094 53.816406 269.277344 C 53.308594 271.558594 52.886719 273.855469 52.546875 276.167969 C 52.210938 278.484375 51.960938 280.804688 51.800781 283.136719 C 51.636719 285.46875 51.5625 287.800781 51.574219 290.140625 C 51.589844 292.476562 51.691406 294.808594 51.878906 297.140625 C 52.066406 299.46875 52.339844 301.789062 52.703125 304.097656 C 53.066406 306.40625 53.515625 308.699219 54.050781 310.972656 C 54.582031 313.25 55.203125 315.5 55.90625 317.730469 C 56.609375 319.960938 57.398438 322.160156 58.265625 324.328125 C 59.132812 326.496094 60.082031 328.632812 61.113281 330.730469 C 62.140625 332.828125 63.246094 334.886719 64.429688 336.902344 C 65.613281 338.917969 66.871094 340.886719 68.203125 342.804688 C 69.535156 344.726562 70.9375 346.59375 72.410156 348.410156 C 73.878906 350.226562 75.417969 351.984375 77.023438 353.683594 C 78.625 355.386719 80.289062 357.023438 82.019531 358.597656 L 94.054688 369.59375 L 88.164062 384.792969 C 87.546875 386.382812 86.976562 387.992188 86.449219 389.617188 C 85.917969 391.242188 85.433594 392.878906 84.996094 394.53125 C 84.558594 396.179688 84.164062 397.839844 83.816406 399.515625 C 83.472656 401.1875 83.167969 402.867188 82.914062 404.554688 C 82.660156 406.242188 82.449219 407.9375 82.289062 409.636719 C 82.125 411.339844 82.011719 413.042969 81.941406 414.75 C 81.875 416.457031 81.851562 418.164062 81.875 419.871094 C 81.902344 421.578125 81.972656 423.285156 82.09375 424.988281 C 82.210938 426.691406 82.375 428.390625 82.585938 430.085938 C 82.800781 431.78125 83.058594 433.46875 83.363281 435.148438 C 83.667969 436.828125 84.015625 438.5 84.414062 440.160156 C 84.808594 441.824219 85.25 443.472656 85.738281 445.109375 C 86.222656 446.746094 86.753906 448.367188 87.332031 449.976562 C 87.90625 451.585938 88.527344 453.175781 89.1875 454.75 C 89.851562 456.324219 90.558594 457.878906 91.304688 459.414062 C 92.054688 460.949219 92.84375 462.460938 93.675781 463.953125 C 94.507812 465.445312 95.378906 466.914062 96.289062 468.359375 C 97.203125 469.800781 98.152344 471.21875 99.140625 472.613281 C 100.132812 474.003906 101.160156 475.367188 102.222656 476.703125 C 103.289062 478.039062 104.386719 479.34375 105.523438 480.621094 C 106.660156 481.894531 107.832031 483.136719 109.035156 484.347656 C 110.238281 485.558594 111.476562 486.738281 112.746094 487.878906 C 114.015625 489.023438 115.3125 490.128906 116.644531 491.203125 C 117.972656 492.273438 119.332031 493.308594 120.71875 494.304688 C 122.105469 495.304688 123.519531 496.261719 124.957031 497.179688 C 126.394531 498.101562 127.859375 498.980469 129.347656 499.820312 C 130.832031 500.660156 132.34375 501.457031 133.875 502.214844 C 135.40625 502.972656 136.957031 503.683594 138.527344 504.355469 C 140.097656 505.027344 141.683594 505.65625 143.289062 506.242188 C 144.894531 506.824219 146.515625 507.363281 148.148438 507.859375 C 149.78125 508.355469 151.429688 508.804688 153.089844 509.210938 C 154.746094 509.617188 156.417969 509.976562 158.097656 510.289062 C 159.773438 510.601562 161.460938 510.871094 163.15625 511.089844 C 164.847656 511.3125 166.546875 511.488281 168.25 511.613281 C 169.953125 511.742188 171.65625 511.824219 173.367188 511.859375 C 175.074219 511.894531 176.78125 511.878906 178.488281 511.820312 C 180.195312 511.761719 181.898438 511.65625 183.597656 511.503906 C 185.300781 511.347656 186.996094 511.148438 188.6875 510.902344 C 190.375 510.65625 192.058594 510.367188 193.730469 510.027344 C 195.40625 509.6875 197.070312 509.304688 198.722656 508.875 C 200.375 508.445312 202.015625 507.972656 203.644531 507.453125 C 205.269531 506.933594 206.882812 506.371094 208.476562 505.761719 C 210.074219 505.152344 211.652344 504.503906 213.210938 503.808594 C 214.773438 503.113281 216.3125 502.375 217.832031 501.597656 C 219.351562 500.816406 220.851562 499.996094 222.324219 499.136719 C 223.800781 498.273438 225.25 497.375 226.675781 496.433594 C 228.101562 495.492188 229.5 494.511719 230.871094 493.496094 C 232.242188 492.476562 233.585938 491.425781 234.898438 490.332031 C 236.214844 489.242188 237.496094 488.113281 238.746094 486.953125 C 240 485.792969 241.21875 484.597656 242.40625 483.367188 C 243.59375 482.140625 244.742188 480.878906 245.859375 479.585938 C 246.980469 478.296875 248.058594 476.972656 249.105469 475.625 C 250.148438 474.273438 251.15625 472.894531 252.125 471.488281 C 253.09375 470.082031 254.023438 468.648438 254.914062 467.191406 C 255.804688 465.734375 256.65625 464.253906 257.464844 462.75 C 258.273438 461.246094 259.042969 459.722656 259.765625 458.175781 C 260.492188 456.628906 261.175781 455.0625 261.816406 453.480469 C 262.453125 451.898438 263.050781 450.296875 263.601562 448.679688 C 264.15625 447.0625 264.660156 445.433594 265.125 443.789062 C 265.585938 442.144531 266.003906 440.492188 266.375 438.824219 C 266.746094 437.15625 267.074219 435.480469 267.351562 433.796875 C 267.632812 432.109375 267.867188 430.417969 268.054688 428.722656 C 268.238281 427.023438 268.378906 425.324219 268.472656 423.617188 C 268.566406 421.910156 268.613281 420.207031 268.613281 418.496094 L 268.613281 383.46875 L 301.1875 396.351562 C 306.566406 398.476562 432.800781 450.390625 432.800781 623.015625 Z M 432.800781 623.015625 " fill-opacity="1" fill-rule="nonzero"/></g></g></g></svg>